<svg width="51" height="13" viewBox="0 0 51 13" fill="none" xmlns="http://www.w3.org/2000/svg">
<path d="M0.826233 7.3481C0.826233 10.3012 2.2624 12.0122 4.74578 12.0122C5.93511 12.0122 6.90004 11.6215 7.5882 10.9028C8.09684 10.3637 8.42597 9.67622 8.42597 9.18403C8.42597 8.87935 8.25392 8.68403 7.94724 8.68403C7.70788 8.68403 7.57324 8.80903 7.41616 9.15278C6.92996 10.3793 6.00243 11.0122 4.78318 11.0122C2.92813 11.0122 1.87344 9.69185 1.87344 7.35591V5.55122C1.87344 3.2231 2.92065 1.88716 4.76074 1.88716C5.95755 1.88716 6.85515 2.54341 7.37128 3.77778C7.53584 4.14497 7.69292 4.26216 7.93976 4.26216C8.21652 4.26216 8.40353 4.07466 8.40353 3.74653C8.40353 3.2856 8.08188 2.58247 7.57324 2.04341C6.8776 1.28559 5.92763 0.89497 4.73082 0.89497C2.2624 0.89497 0.826233 2.62153 0.826233 5.55903V7.3481Z" fill="#FFFCF9"/>
<path d="M10.1688 11.8793C10.4531 11.8793 10.6251 11.7387 10.7373 11.3715L11.7022 8.41841H15.6592L16.6241 11.3715C16.7438 11.7387 16.9083 11.8793 17.1926 11.8793C17.4918 11.8793 17.6938 11.6918 17.6938 11.4028C17.6938 11.2778 17.6638 11.1528 17.6189 11.02L14.41 1.6606C14.2604 1.24653 14.051 1.04341 13.6844 1.04341C13.3104 1.04341 13.1085 1.24653 12.9589 1.6606L9.74246 11.02C9.69757 11.1528 9.67513 11.2778 9.67513 11.4028C9.67513 11.6997 9.86962 11.8793 10.1688 11.8793ZM12.0014 7.51997L13.662 2.46528H13.7069L15.36 7.51997H12.0014Z" fill="#FFFCF9"/>
<path d="M19.9378 11.8559C20.2594 11.8559 20.4689 11.6215 20.4689 11.2543V7.01997H24.4258C24.7699 7.01997 24.9868 6.83247 24.9868 6.52778C24.9868 6.21528 24.7699 6.01997 24.4258 6.01997H20.4689V2.12153H24.8222C25.1663 2.12153 25.3832 1.93403 25.3832 1.62935C25.3832 1.31684 25.1663 1.12153 24.8222 1.12153H20.4464C19.7134 1.12153 19.4216 1.41059 19.4216 2.11372V11.2543C19.4216 11.6215 19.6161 11.8559 19.9378 11.8559Z" fill="#FFFCF9"/>
<path d="M27.1111 10.7934C27.1111 11.4965 27.4029 11.7778 28.1359 11.7778H32.6015C32.9456 11.7778 33.1625 11.5903 33.1625 11.2856C33.1625 10.9731 32.9456 10.7778 32.6015 10.7778H28.1583V6.82466H32.3397C32.6838 6.82466 32.9007 6.63716 32.9007 6.33247C32.9007 6.02778 32.6838 5.83247 32.3397 5.83247H28.1583V2.12153H32.609C32.9531 2.12153 33.17 1.93403 33.17 1.62935C33.17 1.31684 32.9531 1.12153 32.609 1.12153H28.1359C27.4029 1.12153 27.1111 1.41059 27.1111 2.11372V10.7934Z" fill="#FFFCF9"/>
<path d="M39.154 10.3637C39.4532 11.4809 40.0741 11.8481 40.9418 11.8481C41.802 11.8481 42.4228 11.3168 42.6622 10.3637L43.859 5.64497H43.9637L45.1381 10.27C45.4148 11.3793 46.0207 11.8481 46.9557 11.8481C47.8384 11.8481 48.3919 11.3637 48.6612 10.3637L50.5312 3.27778C50.591 3.06685 50.6359 2.69185 50.6359 2.42622C50.6359 1.60591 50.0599 1.03559 49.2297 1.03559C48.4368 1.03559 47.9506 1.55903 47.7411 2.68403L46.7313 7.79341H46.5892L45.3999 2.62153C45.1455 1.51216 44.6967 1.03559 43.9039 1.03559C43.111 1.03559 42.6921 1.48872 42.4228 2.62153L41.241 7.79341H41.1063L40.0217 2.68403C39.7823 1.5356 39.3335 1.03559 38.5481 1.03559C37.7029 1.03559 37.1269 1.61372 37.1269 2.45747C37.1269 2.71528 37.1793 3.10591 37.284 3.48872L39.154 10.3637Z" fill="#FFFCF9"/>
</svg>
