<svg width="43" height="40" viewBox="0 0 43 40" fill="none" xmlns="http://www.w3.org/2000/svg">
<path fill-rule="evenodd" clip-rule="evenodd" d="M39.4433 36.4459C37.1964 40.1031 25.921 39.7699 21.255 39.7699C16.5895 39.7699 6.30684 39.7699 3.06671 36.4459C0.21605 33.4847 0 23.1161 0 19.8849C0 16.6532 0.21605 6.28453 3.06671 3.36643C6.30684 0 16.5895 0 21.255 0C25.921 0 36.2031 0 39.4433 3.36643C42.2945 6.28453 42.5532 16.6526 42.5532 19.8849C42.5532 23.1161 42.2945 33.4847 39.4433 36.4459ZM37.1964 5.70091C35.252 3.68069 27.3896 3.32214 21.255 3.32214C15.1204 3.32214 7.25745 3.68069 5.35681 5.70091C3.84448 7.27159 3.15371 14.5432 3.15371 19.8849C3.15371 25.2261 3.84507 32.4983 5.35681 34.0689C7.25745 36.088 15.1204 36.492 21.255 36.492C27.3896 36.492 35.252 36.088 37.1964 34.0689C38.7087 32.4977 39.3563 25.2261 39.3563 19.8849C39.3569 14.5432 38.7087 7.27159 37.1964 5.70091ZM33.913 24.1935H8.59694L7.0414 11.4461L14.7747 17.0117L21.255 10.2346L27.7785 17.0123L35.5118 11.4467L33.913 24.1935ZM33.3087 29.1761H9.24508L8.8562 26.3933H33.6544L33.3087 29.1761ZM27.5198 20.3339L21.255 13.8704L14.9914 20.3339L10.2389 16.8328L10.8 21.4562H31.7099L32.3143 16.8328L27.5198 20.3339Z" fill="#FFFCF9"/>
</svg>
