<svg width="152" height="127" viewBox="0 0 152 127" fill="none" xmlns="http://www.w3.org/2000/svg">
<g clip-path="url(#clip0)">
<path d="M108.326 24.4811H95.7817V19.632H108.326C110.477 19.632 112.227 17.8874 112.227 15.743C112.227 13.5986 110.477 11.854 108.326 11.854H104.537V7.00488H108.326C113.159 7.00488 117.091 10.9247 117.091 15.743C117.091 20.5613 113.159 24.4811 108.326 24.4811Z" fill="#D68231"/>
<path d="M102.106 0.59668C106.767 0.59668 107.431 4.26936 107.123 6.03675C104.538 20.8376 91.587 32.0903 75.9998 32.0903C60.4127 32.0903 47.4621 20.8373 44.8769 6.03675C44.5682 4.26966 45.2326 0.59668 49.8941 0.59668C49.8938 0.59668 102.106 0.59668 102.106 0.59668Z" fill="#FFB819"/>
<path d="M142.67 37.0112H9.32812V124.17H142.67V37.0112Z" fill="#FFB819"/>
<path opacity="0.1" d="M23.38 75.4526H9.32861V82.1937H23.38V75.4526Z" fill="black"/>
<path opacity="0.1" d="M45.5719 55.7876H31.5205V62.5287H45.5719V55.7876Z" fill="black"/>
<path opacity="0.1" d="M88.8751 53.6606H74.8237V60.4017H88.8751V53.6606Z" fill="black"/>
<path opacity="0.1" d="M67.2091 41.2207H53.1577V47.9618H67.2091V41.2207Z" fill="black"/>
<path opacity="0.1" d="M142.672 63.2773H128.62V70.0181H142.672V63.2773Z" fill="black"/>
<path opacity="0.1" d="M140.353 104.699H126.302V111.44H140.353V104.699Z" fill="black"/>
<path opacity="0.1" d="M110.814 111.006H96.7622V117.747H110.814V111.006Z" fill="black"/>
<path opacity="0.1" d="M85.8629 91.9653H71.8115V98.7064H85.8629V91.9653Z" fill="black"/>
<path opacity="0.1" d="M29.1837 110.36H15.1323V117.101H29.1837V110.36Z" fill="black"/>
<path d="M6.27734 40.4023V44.7081C6.27734 50.1916 10.7367 54.637 16.2375 54.637C21.7383 54.637 26.1977 50.1916 26.1977 44.7081V40.4023H6.27734Z" fill="#00B3E3"/>
<path d="M26.1982 40.4023V44.7081C26.1982 50.1916 30.6576 54.637 36.1584 54.637C41.6592 54.637 46.1186 50.1916 46.1186 44.7081V40.4023H26.1982Z" fill="white"/>
<path d="M46.1187 40.4023V44.7081C46.1187 50.1916 50.5783 54.637 56.0788 54.637C61.5799 54.637 66.039 50.1916 66.039 44.7081V40.4023H46.1187Z" fill="#00B3E3"/>
<path d="M66.0396 40.4023V44.7081C66.0396 50.1916 70.4989 54.637 75.9997 54.637C81.5005 54.637 85.9599 50.1916 85.9599 44.7081V40.4023H66.0396Z" fill="white"/>
<path d="M85.9604 40.4023V44.7081C85.9604 50.1916 90.4198 54.637 95.9206 54.637C101.422 54.637 105.881 50.1916 105.881 44.7081V40.4023H85.9604Z" fill="#00B3E3"/>
<path d="M105.881 40.4023V44.7081C105.881 50.1916 110.34 54.637 115.841 54.637C121.342 54.637 125.801 50.1916 125.801 44.7081V40.4023H105.881Z" fill="white"/>
<path d="M125.802 40.4023V44.7081C125.802 50.1916 130.261 54.637 135.762 54.637C141.263 54.637 145.722 50.1916 145.722 44.7081V40.4023H125.802Z" fill="#00B3E3"/>
<path d="M148.274 41.3575C148.274 43.1356 146.815 44.5901 145.032 44.5901H6.96835C5.18473 44.5901 3.72559 43.1353 3.72559 41.3575V33.7556C3.72559 31.9775 5.18502 30.5229 6.96835 30.5229H145.031C146.815 30.5229 148.274 31.9778 148.274 33.7556V41.3575H148.274Z" fill="#333E48"/>
<path d="M126.25 66.6465H82.4023V124.17H126.25V66.6465Z" fill="white"/>
<path d="M118.519 74.9092H90.1338V95.227H118.519V74.9092Z" fill="#00B3E3"/>
<path d="M111.059 81.3516H97.5952V86.2006H111.059V81.3516Z" fill="white"/>
<path d="M92.5592 107.141C93.898 107.141 94.9832 106.06 94.9832 104.725C94.9832 103.39 93.898 102.309 92.5592 102.309C91.2205 102.309 90.1353 103.39 90.1353 104.725C90.1353 106.06 91.2205 107.141 92.5592 107.141Z" fill="#333E48"/>
<path d="M152 125.098C152 125.816 151.411 126.404 150.69 126.404H1.30981C0.589297 126.404 0 125.816 0 125.098V120.424C0 119.706 0.589297 119.118 1.30981 119.118H150.69C151.411 119.118 152 119.706 152 120.424V125.098Z" fill="#333E48"/>
<path d="M132.401 119.117H76.2505V126.403H132.401V119.117Z" fill="#A4A9AD"/>
<path d="M71.7427 66.6465H19.9858V102.307H71.7427V66.6465Z" fill="#333E48"/>
<path d="M52.6444 75.3208H39.0861L36.1108 85.612H55.6194L52.6444 75.3208Z" fill="#00B3E3"/>
<path d="M48.2959 66.6465H43.4316V75.3209H48.2959V66.6465Z" fill="white"/>
<path d="M27.1938 102.308V95.2274C27.1938 93.8883 28.2828 92.8027 29.6261 92.8027C30.9695 92.8027 32.0584 93.8883 32.0584 95.2274V102.308H27.1938V102.308Z" fill="#00B3E3"/>
<path d="M59.6724 102.307V95.2269C59.6724 93.8878 60.7613 92.8022 62.1047 92.8022C63.448 92.8022 64.5369 93.8878 64.5369 95.2269V102.307H59.6727V102.307H59.6724Z" fill="#00B3E3"/>
</g>
<defs>
<clipPath id="clip0">
<rect width="152" height="127" fill="white"/>
</clipPath>
</defs>
</svg>
