<svg width="51" height="13" viewBox="0 0 51 13" fill="none" xmlns="http://www.w3.org/2000/svg">
<path d="M0.826172 7.3481C0.826172 10.3012 2.26234 12.0122 4.74572 12.0122C5.93505 12.0122 6.89997 11.6215 7.58814 10.9028C8.09678 10.3637 8.42591 9.67622 8.42591 9.18403C8.42591 8.87935 8.25386 8.68403 7.94718 8.68403C7.70782 8.68403 7.57318 8.80903 7.4161 9.15278C6.92989 10.3793 6.00237 11.0122 4.78312 11.0122C2.92807 11.0122 1.87338 9.69185 1.87338 7.35591V5.55122C1.87338 3.2231 2.92059 1.88716 4.76068 1.88716C5.95749 1.88716 6.85509 2.54341 7.37122 3.77778C7.53578 4.14497 7.69286 4.26216 7.9397 4.26216C8.21646 4.26216 8.40346 4.07466 8.40346 3.74653C8.40346 3.2856 8.08182 2.58247 7.57318 2.04341C6.87753 1.28559 5.92757 0.89497 4.73076 0.89497C2.26234 0.89497 0.826172 2.62153 0.826172 5.55903V7.3481Z" fill="#FFFCF9"/>
<path d="M10.1688 11.8793C10.453 11.8793 10.625 11.7387 10.7372 11.3715L11.7022 8.41841H15.6591L16.624 11.3715C16.7437 11.7387 16.9083 11.8793 17.1925 11.8793C17.4917 11.8793 17.6937 11.6918 17.6937 11.4028C17.6937 11.2778 17.6638 11.1528 17.6189 11.02L14.4099 1.6606C14.2603 1.24653 14.0509 1.04341 13.6844 1.04341C13.3104 1.04341 13.1084 1.24653 12.9588 1.6606L9.74239 11.02C9.69751 11.1528 9.67507 11.2778 9.67507 11.4028C9.67507 11.6997 9.86956 11.8793 10.1688 11.8793ZM12.0014 7.51997L13.6619 2.46528H13.7068L15.3599 7.51997H12.0014Z" fill="#FFFCF9"/>
<path d="M19.9377 11.8559C20.2593 11.8559 20.4688 11.6215 20.4688 11.2543V7.01997H24.4257C24.7698 7.01997 24.9867 6.83247 24.9867 6.52778C24.9867 6.21528 24.7698 6.01997 24.4257 6.01997H20.4688V2.12153H24.8222C25.1663 2.12153 25.3832 1.93403 25.3832 1.62935C25.3832 1.31684 25.1663 1.12153 24.8222 1.12153H20.4463C19.7133 1.12153 19.4216 1.41059 19.4216 2.11372V11.2543C19.4216 11.6215 19.6161 11.8559 19.9377 11.8559Z" fill="#FFFCF9"/>
<path d="M27.1111 10.7934C27.1111 11.4965 27.4028 11.7778 28.1358 11.7778H32.6014C32.9455 11.7778 33.1624 11.5903 33.1624 11.2856C33.1624 10.9731 32.9455 10.7778 32.6014 10.7778H28.1583V6.82466H32.3396C32.6837 6.82466 32.9006 6.63716 32.9006 6.33247C32.9006 6.02778 32.6837 5.83247 32.3396 5.83247H28.1583V2.12153H32.6089C32.953 2.12153 33.1699 1.93403 33.1699 1.62935C33.1699 1.31684 32.953 1.12153 32.6089 1.12153H28.1358C27.4028 1.12153 27.1111 1.41059 27.1111 2.11372V10.7934Z" fill="#FFFCF9"/>
<path d="M39.154 10.3637C39.4532 11.4809 40.074 11.8481 40.9417 11.8481C41.8019 11.8481 42.4227 11.3168 42.6621 10.3637L43.8589 5.64497H43.9636L45.138 10.27C45.4148 11.3793 46.0206 11.8481 46.9557 11.8481C47.8383 11.8481 48.3918 11.3637 48.6611 10.3637L50.5311 3.27778C50.591 3.06685 50.6358 2.69185 50.6358 2.42622C50.6358 1.60591 50.0599 1.03559 49.2296 1.03559C48.4367 1.03559 47.9505 1.55903 47.7411 2.68403L46.7313 7.79341H46.5891L45.3998 2.62153C45.1455 1.51216 44.6967 1.03559 43.9038 1.03559C43.1109 1.03559 42.692 1.48872 42.4227 2.62153L41.2409 7.79341H41.1063L40.0216 2.68403C39.7823 1.5356 39.3335 1.03559 38.5481 1.03559C37.7028 1.03559 37.1269 1.61372 37.1269 2.45747C37.1269 2.71528 37.1792 3.10591 37.2839 3.48872L39.154 10.3637Z" fill="#FFFCF9"/>
</svg>
