<svg width="330" height="330" viewBox="0 0 330 330" fill="none" xmlns="http://www.w3.org/2000/svg">
<g filter="url(#filter0_d)">
<circle cx="165" cy="165" r="150" fill="#FFFCF9"/>
</g>
<path d="M110.832 63.8639H91L135.079 165.8L164.737 101.639L193.92 166L239 63.8639L219.221 63.9L194.169 122.306L164.649 60L135.381 122.306L110.832 63.8639Z" fill="#B68C70" fill-opacity="0.2"/>
<path d="M84.3935 94.264V118.288H80.9615V94.264H84.3935ZM71.5235 95.954C72.4248 95.954 73.2568 96.1533 74.0195 96.552C74.7995 96.9507 75.4668 97.5227 76.0215 98.268C76.5762 98.996 77.0095 99.8887 77.3215 100.946C77.6508 101.986 77.8155 103.165 77.8155 104.482C77.8155 105.799 77.6508 106.987 77.3215 108.044C77.0095 109.101 76.5762 110.003 76.0215 110.748C75.4668 111.493 74.7995 112.065 74.0195 112.464C73.2568 112.863 72.4248 113.062 71.5235 113.062C70.6222 113.062 69.7815 112.863 69.0015 112.464C68.2388 112.065 67.5802 111.493 67.0255 110.748C66.4708 110.003 66.0288 109.101 65.6995 108.044C65.3875 106.987 65.2315 105.799 65.2315 104.482C65.2315 103.165 65.3875 101.986 65.6995 100.946C66.0288 99.8887 66.4708 98.996 67.0255 98.268C67.5802 97.5227 68.2388 96.9507 69.0015 96.552C69.7815 96.1533 70.6222 95.954 71.5235 95.954ZM71.5235 99.048C70.6395 99.048 69.9202 99.5073 69.3655 100.426C68.8108 101.345 68.5335 102.697 68.5335 104.482C68.5335 106.267 68.8108 107.628 69.3655 108.564C69.9202 109.483 70.6395 109.942 71.5235 109.942C72.4075 109.942 73.1268 109.483 73.6815 108.564C74.2362 107.628 74.5135 106.267 74.5135 104.482C74.5135 102.697 74.2362 101.345 73.6815 100.426C73.1268 99.5073 72.4075 99.048 71.5235 99.048ZM107.765 103.39H91.1255V94.914H107.557V97.644H94.5315V100.66H107.765V103.39ZM94.3495 115.22H104.229V112.308H94.3495V115.22ZM90.9955 109.63H107.583V117.898H90.9955V109.63ZM110.157 105.028V107.784H88.4995V105.028H110.157ZM133.778 98.788H124.444V100.192H133.778V98.788ZM137.184 102.714H121.038V94.706H124.444V96.292H133.778V94.706H137.184V102.714ZM124.184 115.506H137.912V118.054H120.778V111.814H133.908V110.592H120.752V108.07H137.288V114.154H124.184V115.506ZM139.914 104.014V106.718H118.282V104.014H139.914ZM162.61 112.282H159.36V94.29H162.61V112.282ZM154.524 103.026H152.392V100.27H154.524V94.732H157.722V111.762H154.524V103.026ZM153.38 108.434C152.704 108.555 152.037 108.651 151.378 108.72C150.737 108.789 150.078 108.85 149.402 108.902C148.726 108.937 148.007 108.963 147.244 108.98C146.499 108.98 145.684 108.98 144.8 108.98H143.162V101.232H148.258V98.762H143.136V96.084H151.586V103.728H146.49V106.276C147.755 106.259 148.891 106.215 149.896 106.146C150.919 106.077 151.976 105.947 153.068 105.756L153.38 108.434ZM163.208 115.09V117.82H146.49V110.566H149.922V115.09H163.208ZM170.98 109.734C172.02 109.734 172.973 109.725 173.84 109.708C174.724 109.673 175.556 109.63 176.336 109.578C177.116 109.526 177.861 109.457 178.572 109.37C179.283 109.283 180.002 109.171 180.73 109.032L181.042 111.866C180.227 112.022 179.413 112.152 178.598 112.256C177.801 112.343 176.951 112.412 176.05 112.464C175.149 112.516 174.169 112.551 173.112 112.568C172.072 112.585 170.919 112.594 169.654 112.594H167.548V96.422H179.118V99.204H170.98V109.734ZM185.956 94.29V118.314H182.524V94.29H185.956ZM209.406 108.07H192.558V96.266H209.224V99.048H195.99V105.34H209.406V108.07ZM211.72 112.568V115.376H190.036V112.568H211.72ZM224.057 109.942C225.686 109.925 227.211 109.873 228.633 109.786C230.071 109.682 231.545 109.509 233.053 109.266L233.365 112.048C232.481 112.187 231.605 112.308 230.739 112.412C229.889 112.499 229.031 112.568 228.165 112.62C227.298 112.672 226.405 112.707 225.487 112.724C224.585 112.741 223.641 112.75 222.653 112.75H220.677V102.61H228.009V99.048H220.625V96.318H231.415V105.288H224.057V109.942ZM239.891 94.264V118.288H236.433V105.678H232.689V102.896H236.433V94.264H239.891ZM263.575 108.148H260.143V94.29H263.575V108.148ZM258.661 105.782C256.685 106.198 254.752 106.484 252.863 106.64C250.973 106.779 249.084 106.848 247.195 106.848H245.115V95.798H248.521V104.04C250.133 104.005 251.745 103.91 253.357 103.754C254.969 103.598 256.615 103.347 258.297 103L258.661 105.782ZM255.489 115.532C257.049 115.532 258.236 115.359 259.051 115.012C259.865 114.648 260.273 114.102 260.273 113.374C260.273 112.629 259.865 112.083 259.051 111.736C258.236 111.389 257.049 111.216 255.489 111.216C253.946 111.216 252.767 111.389 251.953 111.736C251.138 112.083 250.731 112.629 250.731 113.374C250.731 114.102 251.138 114.648 251.953 115.012C252.767 115.359 253.946 115.532 255.489 115.532ZM255.489 108.486C256.737 108.486 257.863 108.599 258.869 108.824C259.891 109.049 260.758 109.37 261.469 109.786C262.179 110.202 262.725 110.713 263.107 111.32C263.488 111.927 263.679 112.611 263.679 113.374C263.679 114.137 263.488 114.821 263.107 115.428C262.725 116.035 262.179 116.546 261.469 116.962C260.758 117.378 259.891 117.699 258.869 117.924C257.863 118.149 256.737 118.262 255.489 118.262C254.241 118.262 253.114 118.149 252.109 117.924C251.103 117.699 250.245 117.378 249.535 116.962C248.824 116.546 248.278 116.035 247.897 115.428C247.515 114.821 247.325 114.137 247.325 113.374C247.325 112.611 247.515 111.927 247.897 111.32C248.278 110.713 248.824 110.202 249.535 109.786C250.245 109.37 251.103 109.049 252.109 108.824C253.114 108.599 254.241 108.486 255.489 108.486Z" fill="#7D6F5D"/>
<path d="M53.1858 141.832V156.216H51.8738V141.832H53.1858ZM45.6178 142.936C46.1511 142.936 46.6418 143.053 47.0898 143.288C47.5378 143.523 47.9218 143.859 48.2418 144.296C48.5618 144.733 48.8124 145.261 48.9938 145.88C49.1751 146.488 49.2658 147.176 49.2658 147.944C49.2658 148.712 49.1751 149.405 48.9938 150.024C48.8124 150.632 48.5618 151.155 48.2418 151.592C47.9218 152.029 47.5378 152.365 47.0898 152.6C46.6418 152.835 46.1511 152.952 45.6178 152.952C45.0844 152.952 44.5938 152.835 44.1458 152.6C43.6978 152.365 43.3138 152.029 42.9938 151.592C42.6738 151.155 42.4231 150.632 42.2418 150.024C42.0604 149.405 41.9698 148.712 41.9698 147.944C41.9698 147.176 42.0604 146.488 42.2418 145.88C42.4231 145.261 42.6738 144.733 42.9938 144.296C43.3138 143.859 43.6978 143.523 44.1458 143.288C44.5938 143.053 45.0844 142.936 45.6178 142.936ZM45.6178 144.12C45.2658 144.12 44.9404 144.211 44.6418 144.392C44.3538 144.573 44.1031 144.829 43.8898 145.16C43.6764 145.491 43.5111 145.896 43.3938 146.376C43.2764 146.845 43.2178 147.368 43.2178 147.944C43.2178 148.531 43.2764 149.059 43.3938 149.528C43.5111 149.997 43.6764 150.403 43.8898 150.744C44.1031 151.075 44.3538 151.331 44.6418 151.512C44.9404 151.693 45.2658 151.784 45.6178 151.784C45.9698 151.784 46.2898 151.693 46.5778 151.512C46.8658 151.331 47.1164 151.075 47.3298 150.744C47.5431 150.403 47.7084 149.997 47.8258 149.528C47.9431 149.059 48.0018 148.531 48.0018 147.944C48.0018 147.368 47.9431 146.845 47.8258 146.376C47.7084 145.896 47.5431 145.491 47.3298 145.16C47.1164 144.829 46.8658 144.573 46.5778 144.392C46.2898 144.211 45.9698 144.12 45.6178 144.12ZM67.6645 147.08H57.7925V142.296H67.5365V143.368H59.1045V146.024H67.6645V147.08ZM59.0405 154.888H66.2885V152.248H59.0405V154.888ZM57.7605 151.192H67.5685V155.944H57.7605V151.192ZM69.1525 148.536V149.608H56.1765V148.536H69.1525ZM84.4414 144.44H77.4654V145.816H84.4414V144.44ZM85.7374 146.824H76.1694V142.088H77.4654V143.448H84.4414V142.088H85.7374V146.824ZM77.3374 155.016H86.2014V156.024H76.0574V152.648H84.4734V151.384H76.0094V150.392H85.7694V153.592H77.3374V155.016ZM87.4334 148.04V149.08H74.4414V148.04H87.4334ZM101.288 152.616H100.024V141.848H101.288V152.616ZM97.2081 146.888H95.4481V145.816H97.2081V142.104H98.4561V152.248H97.2081V146.888ZM96.1201 149.976C95.6721 150.061 95.2348 150.136 94.8081 150.2C94.3921 150.253 93.9655 150.296 93.5281 150.328C93.1015 150.36 92.6588 150.381 92.2001 150.392C91.7521 150.403 91.2721 150.408 90.7601 150.408H89.8321V146.136H93.6081V144.04H89.8001V143.016H94.8881V147.128H91.1121V149.352C91.5708 149.352 92.0028 149.347 92.4081 149.336C92.8241 149.315 93.2295 149.293 93.6241 149.272C94.0188 149.24 94.4081 149.197 94.7921 149.144C95.1761 149.091 95.5708 149.021 95.9761 148.936L96.1201 149.976ZM101.704 154.792V155.864H91.9281V151.544H93.2401V154.792H101.704ZM106.119 151.528C106.812 151.528 107.452 151.523 108.039 151.512C108.626 151.501 109.18 151.48 109.703 151.448C110.236 151.405 110.754 151.352 111.255 151.288C111.756 151.224 112.274 151.144 112.807 151.048L112.951 152.152C112.396 152.248 111.858 152.328 111.335 152.392C110.812 152.456 110.274 152.509 109.719 152.552C109.164 152.584 108.583 152.611 107.975 152.632C107.367 152.643 106.7 152.648 105.975 152.648H104.823V143.192H111.607V144.296H106.119V151.528ZM115.639 141.832V156.216H114.327V141.832H115.639ZM130.118 149.784H120.262V143.144H129.974V144.232H121.558V148.712H130.118V149.784ZM131.622 153.16V154.248H118.598V153.16H131.622ZM138.735 151.656C139.343 151.656 139.913 151.651 140.447 151.64C140.991 151.619 141.508 151.592 141.999 151.56C142.5 151.528 142.996 151.485 143.487 151.432C143.977 151.368 144.479 151.288 144.991 151.192L145.119 152.28C144.575 152.376 144.047 152.456 143.535 152.52C143.033 152.573 142.516 152.621 141.983 152.664C141.46 152.696 140.916 152.717 140.351 152.728C139.796 152.739 139.193 152.744 138.543 152.744H137.439V147.128H142.543V144.232H137.407V143.16H143.823V148.184H138.735V151.656ZM148.719 141.816V156.2H147.407V148.424H144.671V147.352H147.407V141.816H148.719ZM163.373 150.408H162.061V141.832H163.373V150.408ZM160.701 148.536C160.115 148.653 159.539 148.755 158.973 148.84C158.419 148.925 157.859 148.995 157.293 149.048C156.728 149.091 156.147 149.123 155.549 149.144C154.952 149.165 154.328 149.176 153.677 149.176H152.509V142.792H153.821V148.072C154.44 148.072 155.032 148.061 155.597 148.04C156.173 148.019 156.733 147.987 157.277 147.944C157.832 147.891 158.376 147.827 158.909 147.752C159.443 147.667 159.987 147.565 160.541 147.448L160.701 148.536ZM158.621 155.112C159.709 155.112 160.563 154.957 161.181 154.648C161.811 154.339 162.125 153.907 162.125 153.352C162.125 152.787 161.811 152.349 161.181 152.04C160.563 151.731 159.709 151.576 158.621 151.576C157.523 151.576 156.659 151.731 156.029 152.04C155.411 152.349 155.101 152.787 155.101 153.352C155.101 153.907 155.411 154.339 156.029 154.648C156.659 154.957 157.523 155.112 158.621 155.112ZM158.621 150.52C159.357 150.52 160.024 150.584 160.621 150.712C161.219 150.84 161.725 151.027 162.141 151.272C162.557 151.517 162.877 151.816 163.101 152.168C163.325 152.509 163.437 152.904 163.437 153.352C163.437 153.789 163.325 154.184 163.101 154.536C162.877 154.888 162.557 155.181 162.141 155.416C161.725 155.661 161.219 155.848 160.621 155.976C160.024 156.104 159.357 156.168 158.621 156.168C157.885 156.168 157.219 156.104 156.621 155.976C156.024 155.848 155.512 155.661 155.085 155.416C154.669 155.181 154.349 154.888 154.125 154.536C153.901 154.184 153.789 153.789 153.789 153.352C153.789 152.904 153.901 152.509 154.125 152.168C154.349 151.816 154.669 151.517 155.085 151.272C155.512 151.027 156.024 150.84 156.621 150.712C157.219 150.584 157.885 150.52 158.621 150.52ZM176.102 149.752C176.305 148.557 176.427 147.523 176.47 146.648C176.513 145.773 176.534 145.048 176.534 144.472H170.566V143.4H177.814V144.184C177.814 144.76 177.798 145.517 177.766 146.456C177.734 147.395 177.617 148.536 177.414 149.88L176.102 149.752ZM174.118 151.88C174.907 151.848 175.691 151.811 176.47 151.768C177.249 151.715 178.006 151.64 178.742 151.544L178.822 152.504C178.075 152.621 177.313 152.717 176.534 152.792C175.755 152.867 174.982 152.925 174.214 152.968C173.446 153 172.699 153.021 171.974 153.032C171.249 153.043 170.566 153.048 169.926 153.048L169.782 151.96C170.241 151.96 170.726 151.96 171.238 151.96C171.75 151.949 172.278 151.933 172.822 151.912V147.496H174.118V151.88ZM183.222 148.936H180.934V156.184H179.622V141.832H180.934V147.832H183.222V148.936ZM195.141 145.56V141.848H196.469V150.392H195.141V146.632H192.309V145.56H195.141ZM192.453 149.848C191.653 149.56 190.954 149.133 190.357 148.568C189.76 148.003 189.306 147.352 188.997 146.616C188.688 147.448 188.218 148.184 187.589 148.824C186.96 149.464 186.224 149.944 185.381 150.264L184.693 149.224C185.226 149.032 185.712 148.771 186.149 148.44C186.597 148.109 186.981 147.736 187.301 147.32C187.621 146.893 187.866 146.435 188.037 145.944C188.218 145.453 188.309 144.952 188.309 144.44V143.944H185.109V142.888H192.773V143.944H189.621V144.44C189.621 144.899 189.706 145.352 189.877 145.8C190.048 146.248 190.282 146.664 190.581 147.048C190.89 147.432 191.258 147.779 191.685 148.088C192.112 148.397 192.586 148.643 193.109 148.824L192.453 149.848ZM191.733 155.16C192.821 155.16 193.669 155.016 194.277 154.728C194.896 154.44 195.205 154.035 195.205 153.512C195.205 152.989 194.896 152.584 194.277 152.296C193.669 151.997 192.821 151.848 191.733 151.848C190.645 151.848 189.792 151.997 189.173 152.296C188.565 152.584 188.261 152.989 188.261 153.512C188.261 154.035 188.565 154.44 189.173 154.728C189.792 155.016 190.645 155.16 191.733 155.16ZM191.733 150.84C192.469 150.84 193.13 150.899 193.717 151.016C194.304 151.133 194.805 151.309 195.221 151.544C195.637 151.768 195.952 152.045 196.165 152.376C196.389 152.707 196.501 153.085 196.501 153.512C196.501 153.939 196.389 154.317 196.165 154.648C195.952 154.979 195.637 155.256 195.221 155.48C194.805 155.715 194.304 155.891 193.717 156.008C193.13 156.125 192.469 156.184 191.733 156.184C190.997 156.184 190.33 156.125 189.733 156.008C189.146 155.891 188.645 155.715 188.229 155.48C187.824 155.256 187.509 154.979 187.285 154.648C187.061 154.317 186.949 153.939 186.949 153.512C186.949 153.085 187.061 152.707 187.285 152.376C187.509 152.045 187.824 151.768 188.229 151.544C188.645 151.309 189.146 151.133 189.733 151.016C190.33 150.899 190.997 150.84 191.733 150.84ZM202.612 151.816C203.177 151.816 203.625 151.48 203.956 150.808C204.297 150.125 204.468 149.192 204.468 148.008C204.468 147.432 204.42 146.915 204.324 146.456C204.238 145.987 204.116 145.592 203.956 145.272C203.796 144.941 203.598 144.691 203.364 144.52C203.14 144.339 202.889 144.248 202.612 144.248C202.036 144.248 201.577 144.589 201.236 145.272C200.905 145.944 200.74 146.856 200.74 148.008C200.74 149.192 200.905 150.125 201.236 150.808C201.577 151.48 202.036 151.816 202.612 151.816ZM207.46 142.152H208.708V155.48H207.46V148.488H205.652C205.62 149.192 205.524 149.827 205.364 150.392C205.214 150.947 205.006 151.421 204.74 151.816C204.484 152.211 204.174 152.515 203.812 152.728C203.449 152.931 203.049 153.032 202.612 153.032C202.142 153.032 201.716 152.915 201.332 152.68C200.958 152.445 200.638 152.115 200.372 151.688C200.105 151.251 199.897 150.723 199.748 150.104C199.609 149.485 199.54 148.787 199.54 148.008C199.54 147.24 199.609 146.552 199.748 145.944C199.897 145.325 200.105 144.803 200.372 144.376C200.638 143.939 200.958 143.608 201.332 143.384C201.716 143.149 202.142 143.032 202.612 143.032C203.038 143.032 203.428 143.133 203.78 143.336C204.142 143.539 204.452 143.832 204.708 144.216C204.974 144.589 205.188 145.048 205.348 145.592C205.508 146.136 205.609 146.744 205.652 147.416H207.46V142.152ZM211.556 141.832V156.184H210.308V141.832H211.556ZM219.106 145.64C219.106 146.291 219.202 146.936 219.394 147.576C219.586 148.205 219.848 148.797 220.178 149.352C220.52 149.907 220.914 150.403 221.362 150.84C221.81 151.267 222.296 151.603 222.818 151.848L222.05 152.888C221.645 152.685 221.256 152.429 220.882 152.12C220.52 151.811 220.184 151.459 219.874 151.064C219.576 150.669 219.304 150.243 219.058 149.784C218.813 149.325 218.61 148.845 218.45 148.344C218.29 148.877 218.088 149.389 217.842 149.88C217.608 150.36 217.336 150.808 217.026 151.224C216.728 151.629 216.397 151.997 216.034 152.328C215.672 152.659 215.288 152.931 214.882 153.144L214.082 152.104C214.605 151.848 215.09 151.491 215.538 151.032C215.986 150.573 216.376 150.056 216.706 149.48C217.048 148.904 217.314 148.285 217.506 147.624C217.698 146.963 217.794 146.301 217.794 145.64V143.064H219.106V145.64ZM225.906 141.832V156.2H224.594V147.768H221.266V146.696H224.594V141.832H225.906ZM238.859 143.256C238.315 143.256 237.819 143.299 237.371 143.384C236.923 143.469 236.539 143.592 236.219 143.752C235.899 143.901 235.649 144.088 235.467 144.312C235.297 144.536 235.211 144.792 235.211 145.08C235.211 145.357 235.297 145.608 235.467 145.832C235.649 146.056 235.899 146.248 236.219 146.408C236.539 146.557 236.923 146.675 237.371 146.76C237.819 146.845 238.315 146.888 238.859 146.888C239.414 146.888 239.915 146.845 240.363 146.76C240.811 146.675 241.195 146.557 241.515 146.408C241.835 146.248 242.081 146.056 242.251 145.832C242.422 145.608 242.507 145.357 242.507 145.08C242.507 144.792 242.422 144.536 242.251 144.312C242.081 144.088 241.835 143.901 241.515 143.752C241.195 143.592 240.811 143.469 240.363 143.384C239.915 143.299 239.414 143.256 238.859 143.256ZM238.859 147.96C238.102 147.96 237.414 147.896 236.795 147.768C236.177 147.629 235.649 147.437 235.211 147.192C234.774 146.936 234.433 146.632 234.187 146.28C233.953 145.928 233.835 145.528 233.835 145.08C233.835 144.632 233.953 144.232 234.187 143.88C234.433 143.528 234.774 143.229 235.211 142.984C235.649 142.728 236.177 142.536 236.795 142.408C237.414 142.269 238.102 142.2 238.859 142.2C239.617 142.2 240.305 142.269 240.923 142.408C241.542 142.536 242.07 142.728 242.507 142.984C242.945 143.229 243.281 143.528 243.515 143.88C243.761 144.232 243.883 144.632 243.883 145.08C243.883 145.528 243.761 145.928 243.515 146.28C243.281 146.632 242.945 146.936 242.507 147.192C242.07 147.437 241.542 147.629 240.923 147.768C240.305 147.896 239.617 147.96 238.859 147.96ZM235.339 154.776H243.947V155.864H234.027V151.672H235.339V154.776ZM245.371 149.112V150.184H239.643V153.08H238.315V150.184H232.363V149.112H245.371ZM248.57 146.088C248.57 146.429 248.629 146.739 248.746 147.016C248.874 147.293 249.045 147.539 249.258 147.752C249.482 147.955 249.743 148.115 250.042 148.232C250.341 148.339 250.666 148.392 251.018 148.392C251.37 148.392 251.695 148.339 251.994 148.232C252.293 148.115 252.549 147.955 252.762 147.752C252.975 147.539 253.141 147.293 253.258 147.016C253.386 146.739 253.45 146.429 253.45 146.088C253.45 145.757 253.386 145.453 253.258 145.176C253.141 144.888 252.975 144.643 252.762 144.44C252.549 144.237 252.293 144.083 251.994 143.976C251.695 143.859 251.37 143.8 251.018 143.8C250.666 143.8 250.341 143.859 250.042 143.976C249.743 144.083 249.482 144.237 249.258 144.44C249.045 144.643 248.874 144.888 248.746 145.176C248.629 145.453 248.57 145.757 248.57 146.088ZM254.522 144.968C254.639 145.32 254.698 145.693 254.698 146.088C254.698 146.483 254.634 146.856 254.506 147.208H257.594V144.968H254.522ZM253.914 148.28C253.583 148.664 253.167 148.968 252.666 149.192C252.175 149.405 251.626 149.512 251.018 149.512C250.485 149.512 249.989 149.432 249.53 149.272C249.082 149.101 248.693 148.867 248.362 148.568C248.042 148.259 247.786 147.896 247.594 147.48C247.413 147.053 247.322 146.589 247.322 146.088C247.322 145.587 247.413 145.128 247.594 144.712C247.786 144.296 248.042 143.939 248.362 143.64C248.693 143.341 249.082 143.112 249.53 142.952C249.989 142.781 250.485 142.696 251.018 142.696C251.626 142.696 252.175 142.803 252.666 143.016C253.167 143.229 253.583 143.523 253.914 143.896H257.594V141.832H258.922V150.328H257.594V148.28H253.914ZM254.17 155.128C255.269 155.128 256.127 154.979 256.746 154.68C257.365 154.381 257.674 153.96 257.674 153.416C257.674 152.872 257.365 152.451 256.746 152.152C256.127 151.843 255.269 151.688 254.17 151.688C253.082 151.688 252.229 151.843 251.61 152.152C251.002 152.451 250.698 152.872 250.698 153.416C250.698 153.96 251.002 154.381 251.61 154.68C252.229 154.979 253.082 155.128 254.17 155.128ZM254.17 150.664C254.906 150.664 255.567 150.728 256.154 150.856C256.751 150.973 257.258 151.149 257.674 151.384C258.09 151.619 258.41 151.907 258.634 152.248C258.858 152.589 258.97 152.979 258.97 153.416C258.97 153.853 258.858 154.243 258.634 154.584C258.41 154.925 258.09 155.213 257.674 155.448C257.258 155.683 256.751 155.859 256.154 155.976C255.567 156.104 254.906 156.168 254.17 156.168C253.434 156.168 252.773 156.104 252.186 155.976C251.599 155.859 251.098 155.683 250.682 155.448C250.266 155.213 249.946 154.925 249.722 154.584C249.509 154.243 249.402 153.853 249.402 153.416C249.402 152.979 249.509 152.589 249.722 152.248C249.946 151.907 250.266 151.619 250.682 151.384C251.098 151.149 251.599 150.973 252.186 150.856C252.773 150.728 253.434 150.664 254.17 150.664ZM266.025 151.896C266.355 151.896 266.654 151.843 266.921 151.736C267.198 151.619 267.438 151.464 267.641 151.272C267.843 151.08 267.998 150.851 268.105 150.584C268.222 150.307 268.281 150.008 268.281 149.688C268.281 149.368 268.222 149.075 268.105 148.808C267.998 148.531 267.843 148.296 267.641 148.104C267.438 147.901 267.198 147.747 266.921 147.64C266.654 147.523 266.355 147.464 266.025 147.464C265.705 147.464 265.406 147.523 265.129 147.64C264.851 147.747 264.611 147.901 264.409 148.104C264.217 148.296 264.062 148.531 263.945 148.808C263.838 149.075 263.785 149.368 263.785 149.688C263.785 150.008 263.838 150.307 263.945 150.584C264.062 150.851 264.217 151.08 264.409 151.272C264.611 151.464 264.851 151.619 265.129 151.736C265.406 151.843 265.705 151.896 266.025 151.896ZM266.025 146.376C266.537 146.376 267.006 146.461 267.433 146.632C267.859 146.792 268.227 147.021 268.537 147.32C268.857 147.608 269.102 147.955 269.273 148.36C269.443 148.765 269.529 149.208 269.529 149.688C269.529 150.179 269.443 150.627 269.273 151.032C269.102 151.437 268.857 151.784 268.537 152.072C268.227 152.36 267.859 152.584 267.433 152.744C267.006 152.904 266.537 152.984 266.025 152.984C265.523 152.984 265.059 152.904 264.633 152.744C264.206 152.584 263.838 152.36 263.529 152.072C263.219 151.784 262.979 151.437 262.809 151.032C262.638 150.627 262.553 150.179 262.553 149.688C262.553 149.208 262.638 148.765 262.809 148.36C262.979 147.955 263.219 147.608 263.529 147.32C263.838 147.021 264.206 146.792 264.633 146.632C265.059 146.461 265.523 146.376 266.025 146.376ZM266.665 144.136H270.201V145.192H261.737V144.136H265.353V142.008H266.665V144.136ZM275.225 148.84H272.873V156.184H271.561V141.848H272.873V147.736H275.225V148.84ZM288.04 147.224H278.28V142.36H279.592V146.152H288.04V147.224ZM279.496 154.76H288.12V155.832H278.184V151.64H279.496V154.76ZM289.528 149.144V150.2H276.52V149.144H289.528ZM63.3925 164.744C63.3925 165.651 63.2378 166.493 62.9285 167.272C62.6192 168.04 62.1765 168.733 61.6005 169.352C61.0245 169.971 60.3205 170.515 59.4885 170.984C58.6565 171.443 57.7178 171.816 56.6725 172.104L56.1285 171.064C57.0032 170.829 57.7872 170.541 58.4805 170.2C59.1738 169.848 59.7712 169.448 60.2725 169C60.7738 168.552 61.1685 168.061 61.4565 167.528C61.7445 166.995 61.9205 166.424 61.9845 165.816H56.7845V164.744H63.3925ZM57.9685 172.904H67.2965V178.184H65.9845V173.96H57.9685V172.904ZM69.4245 168.552H67.2965V172.248H65.9845V163.816H67.2965V167.464H69.4245V168.552ZM80.6334 171.752C80.836 170.557 80.9587 169.523 81.0014 168.648C81.044 167.773 81.0654 167.048 81.0654 166.472H75.0974V165.4H82.3454V166.184C82.3454 166.76 82.3294 167.517 82.2974 168.456C82.2654 169.395 82.148 170.536 81.9454 171.88L80.6334 171.752ZM78.6494 173.88C79.4387 173.848 80.2227 173.811 81.0014 173.768C81.78 173.715 82.5374 173.64 83.2734 173.544L83.3534 174.504C82.6067 174.621 81.844 174.717 81.0654 174.792C80.2867 174.867 79.5134 174.925 78.7454 174.968C77.9774 175 77.2307 175.021 76.5054 175.032C75.78 175.043 75.0974 175.048 74.4574 175.048L74.3134 173.96C74.772 173.96 75.2574 173.96 75.7694 173.96C76.2814 173.949 76.8094 173.933 77.3534 173.912V169.496H78.6494V173.88ZM87.7534 170.936H85.4654V178.184H84.1534V163.832H85.4654V169.832H87.7534V170.936ZM99.6721 167.56V163.848H101V172.392H99.6721V168.632H96.8401V167.56H99.6721ZM96.9841 171.848C96.1841 171.56 95.4855 171.133 94.8881 170.568C94.2908 170.003 93.8375 169.352 93.5281 168.616C93.2188 169.448 92.7495 170.184 92.1201 170.824C91.4908 171.464 90.7548 171.944 89.9121 172.264L89.2241 171.224C89.7575 171.032 90.2428 170.771 90.6801 170.44C91.1281 170.109 91.5121 169.736 91.8321 169.32C92.1521 168.893 92.3975 168.435 92.5681 167.944C92.7495 167.453 92.8401 166.952 92.8401 166.44V165.944H89.6401V164.888H97.3041V165.944H94.1521V166.44C94.1521 166.899 94.2375 167.352 94.4081 167.8C94.5788 168.248 94.8135 168.664 95.1121 169.048C95.4215 169.432 95.7895 169.779 96.2161 170.088C96.6428 170.397 97.1175 170.643 97.6401 170.824L96.9841 171.848ZM96.2641 177.16C97.3521 177.16 98.2001 177.016 98.8081 176.728C99.4268 176.44 99.7361 176.035 99.7361 175.512C99.7361 174.989 99.4268 174.584 98.8081 174.296C98.2001 173.997 97.3521 173.848 96.2641 173.848C95.1761 173.848 94.3228 173.997 93.7041 174.296C93.0961 174.584 92.7921 174.989 92.7921 175.512C92.7921 176.035 93.0961 176.44 93.7041 176.728C94.3228 177.016 95.1761 177.16 96.2641 177.16ZM96.2641 172.84C97.0001 172.84 97.6615 172.899 98.2481 173.016C98.8348 173.133 99.3361 173.309 99.7521 173.544C100.168 173.768 100.483 174.045 100.696 174.376C100.92 174.707 101.032 175.085 101.032 175.512C101.032 175.939 100.92 176.317 100.696 176.648C100.483 176.979 100.168 177.256 99.7521 177.48C99.3361 177.715 98.8348 177.891 98.2481 178.008C97.6615 178.125 97.0001 178.184 96.2641 178.184C95.5281 178.184 94.8615 178.125 94.2641 178.008C93.6775 177.891 93.1761 177.715 92.7601 177.48C92.3548 177.256 92.0401 176.979 91.8161 176.648C91.5921 176.317 91.4801 175.939 91.4801 175.512C91.4801 175.085 91.5921 174.707 91.8161 174.376C92.0401 174.045 92.3548 173.768 92.7601 173.544C93.1761 173.309 93.6775 173.133 94.2641 173.016C94.8615 172.899 95.5281 172.84 96.2641 172.84ZM108.551 164.888C109.106 164.888 109.618 164.973 110.087 165.144C110.567 165.304 110.972 165.533 111.303 165.832C111.644 166.12 111.911 166.472 112.103 166.888C112.295 167.304 112.391 167.763 112.391 168.264C112.391 168.765 112.295 169.224 112.103 169.64C111.911 170.056 111.644 170.413 111.303 170.712C110.972 171 110.567 171.229 110.087 171.4C109.618 171.56 109.106 171.64 108.551 171.64C107.996 171.64 107.484 171.56 107.015 171.4C106.546 171.229 106.14 171 105.799 170.712C105.458 170.413 105.191 170.056 104.999 169.64C104.807 169.224 104.711 168.765 104.711 168.264C104.711 167.763 104.807 167.304 104.999 166.888C105.191 166.472 105.458 166.12 105.799 165.832C106.14 165.533 106.546 165.304 107.015 165.144C107.484 164.973 107.996 164.888 108.551 164.888ZM108.551 166.008C108.178 166.008 107.831 166.061 107.511 166.168C107.202 166.275 106.935 166.429 106.711 166.632C106.487 166.835 106.311 167.075 106.183 167.352C106.055 167.629 105.991 167.933 105.991 168.264C105.991 168.595 106.055 168.899 106.183 169.176C106.311 169.453 106.487 169.693 106.711 169.896C106.935 170.088 107.202 170.243 107.511 170.36C107.831 170.467 108.178 170.52 108.551 170.52C108.924 170.52 109.266 170.467 109.575 170.36C109.895 170.243 110.167 170.088 110.391 169.896C110.615 169.693 110.791 169.453 110.919 169.176C111.047 168.899 111.111 168.595 111.111 168.264C111.111 167.933 111.047 167.629 110.919 167.352C110.791 167.075 110.615 166.835 110.391 166.632C110.167 166.429 109.895 166.275 109.575 166.168C109.266 166.061 108.924 166.008 108.551 166.008ZM115.591 163.832V178.216H114.279V163.832H115.591ZM103.991 173.96C104.642 173.96 105.346 173.96 106.103 173.96C106.871 173.949 107.655 173.928 108.455 173.896C109.266 173.864 110.082 173.816 110.903 173.752C111.735 173.677 112.546 173.581 113.335 173.464L113.447 174.44C112.636 174.589 111.815 174.707 110.983 174.792C110.162 174.877 109.351 174.941 108.551 174.984C107.762 175.027 106.994 175.053 106.247 175.064C105.5 175.064 104.802 175.064 104.151 175.064L103.991 173.96ZM127.024 168.216C127.024 168.792 127.12 169.373 127.312 169.96C127.504 170.536 127.765 171.085 128.096 171.608C128.437 172.131 128.832 172.605 129.28 173.032C129.728 173.448 130.213 173.779 130.736 174.024L129.984 175.08C129.578 174.877 129.194 174.627 128.832 174.328C128.469 174.019 128.133 173.677 127.824 173.304C127.514 172.92 127.237 172.509 126.992 172.072C126.746 171.624 126.544 171.16 126.384 170.68C126.224 171.203 126.016 171.709 125.76 172.2C125.514 172.68 125.232 173.128 124.912 173.544C124.592 173.949 124.245 174.317 123.872 174.648C123.509 174.968 123.125 175.229 122.72 175.432L121.952 174.392C122.464 174.136 122.949 173.784 123.408 173.336C123.866 172.888 124.266 172.387 124.608 171.832C124.949 171.277 125.221 170.691 125.424 170.072C125.626 169.443 125.728 168.824 125.728 168.216V166.392H122.448V165.304H130.208V166.392H127.024V168.216ZM135.6 170.728H133.232V178.184H131.92V163.848H133.232V169.624H135.6V170.728ZM141.167 167.88C141.167 168.456 141.231 169.032 141.359 169.608C141.497 170.184 141.689 170.733 141.935 171.256C142.191 171.779 142.5 172.259 142.863 172.696C143.236 173.123 143.657 173.48 144.127 173.768L143.375 174.792C142.692 174.376 142.111 173.811 141.631 173.096C141.161 172.371 140.799 171.571 140.543 170.696C140.287 171.656 139.903 172.52 139.391 173.288C138.889 174.056 138.281 174.664 137.567 175.112L136.751 174.12C137.241 173.832 137.679 173.464 138.062 173.016C138.457 172.568 138.788 172.072 139.055 171.528C139.332 170.973 139.54 170.392 139.679 169.784C139.828 169.165 139.903 168.547 139.903 167.928V165.192H141.167V167.88ZM144.943 164.152H146.175V177.48H144.943V170.072H142.575V168.984H144.943V164.152ZM149.103 163.832V178.184H147.855V163.832H149.103ZM160.141 166.648H151.677V165.592H155.245V163.848H156.557V165.592H160.141V166.648ZM153.725 170.104C153.725 170.616 153.923 171.021 154.317 171.32C154.712 171.608 155.24 171.752 155.901 171.752C156.552 171.752 157.08 171.608 157.485 171.32C157.891 171.021 158.093 170.616 158.093 170.104C158.093 169.603 157.891 169.208 157.485 168.92C157.08 168.621 156.552 168.472 155.901 168.472C155.24 168.472 154.712 168.621 154.317 168.92C153.923 169.208 153.725 169.603 153.725 170.104ZM159.341 170.104C159.341 170.509 159.256 170.877 159.085 171.208C158.925 171.539 158.691 171.821 158.381 172.056C158.083 172.28 157.72 172.456 157.293 172.584C156.877 172.712 156.413 172.776 155.901 172.776C155.389 172.776 154.925 172.712 154.509 172.584C154.093 172.456 153.731 172.28 153.421 172.056C153.123 171.821 152.888 171.539 152.717 171.208C152.557 170.877 152.477 170.509 152.477 170.104C152.477 169.709 152.557 169.347 152.717 169.016C152.888 168.685 153.123 168.408 153.421 168.184C153.731 167.949 154.093 167.768 154.509 167.64C154.925 167.512 155.389 167.448 155.901 167.448C156.413 167.448 156.877 167.512 157.293 167.64C157.72 167.768 158.083 167.949 158.381 168.184C158.691 168.408 158.925 168.685 159.085 169.016C159.256 169.347 159.341 169.709 159.341 170.104ZM155.149 176.792H163.405V177.864H153.837V173.752H155.149V176.792ZM164.893 168.568V169.672H162.765V174.6H161.453V163.848H162.765V168.568H164.893ZM177.158 165.32C177.158 166.365 177.057 167.379 176.854 168.36C176.651 169.341 176.299 170.28 175.798 171.176C175.307 172.072 174.641 172.915 173.798 173.704C172.966 174.483 171.921 175.192 170.662 175.832L169.926 174.792C171.238 174.152 172.299 173.427 173.11 172.616C173.921 171.805 174.55 170.92 174.998 169.96L170.214 170.408L169.974 169.272L175.398 168.92C175.537 168.515 175.638 168.104 175.702 167.688C175.777 167.272 175.83 166.84 175.862 166.392H170.71V165.32H177.158ZM181.734 163.848V178.184H180.422V170.664H177.11V169.592H180.422V163.848H181.734ZM186.789 173.64C187.376 173.64 187.952 173.635 188.517 173.624C189.082 173.603 189.648 173.576 190.213 173.544C190.778 173.501 191.354 173.448 191.941 173.384C192.528 173.309 193.136 173.224 193.765 173.128L193.893 174.2C193.242 174.307 192.613 174.397 192.005 174.472C191.408 174.536 190.816 174.589 190.229 174.632C189.642 174.664 189.056 174.691 188.469 174.712C187.882 174.723 187.28 174.728 186.661 174.728H185.477V169.224H190.757V166.232H185.429V165.16H192.085V170.296H186.789V173.64ZM196.421 163.816V178.2H195.109V163.816H196.421ZM207.556 170.6H204.148V172.12H207.556V170.6ZM208.868 170.6V172.12H210.788V175.464H202.228V176.968H211.3V177.992H200.932V174.488H209.508V173.144H200.9V172.12H202.836V170.6H199.396V169.544H209.06C209.124 169.213 209.177 168.904 209.22 168.616C209.262 168.317 209.3 168.029 209.332 167.752L200.836 168.152L200.676 167.112L209.396 166.824C209.406 166.589 209.412 166.365 209.412 166.152C209.412 165.939 209.412 165.725 209.412 165.512V165.48H201.028V164.44H210.708V165.512C210.708 166.056 210.692 166.659 210.66 167.32C210.638 167.971 210.542 168.712 210.372 169.544H212.308V170.6H208.868ZM222.29 171.272C221.736 171.357 221.197 171.427 220.674 171.48C220.162 171.533 219.645 171.576 219.122 171.608C218.6 171.64 218.066 171.661 217.522 171.672C216.978 171.683 216.397 171.688 215.778 171.688H214.69V167.544H219.73V165.624H214.642V164.568H221.01V168.552H215.97V170.616C216.546 170.616 217.096 170.611 217.618 170.6C218.141 170.589 218.648 170.568 219.138 170.536C219.64 170.504 220.136 170.461 220.626 170.408C221.128 170.355 221.645 170.285 222.178 170.2L222.29 171.272ZM217.794 176.936H224.61V174.104H217.794V176.936ZM216.514 173.048H225.906V177.992H216.514V173.048ZM225.906 163.848V172.28H224.578V168.12H221.922V167.048H224.578V163.848H225.906ZM235.281 165.064C234.097 165.064 233.185 165.197 232.545 165.464C231.905 165.72 231.585 166.088 231.585 166.568C231.585 167.048 231.905 167.421 232.545 167.688C233.185 167.944 234.097 168.072 235.281 168.072C236.465 168.072 237.377 167.944 238.017 167.688C238.657 167.421 238.977 167.048 238.977 166.568C238.977 166.088 238.657 165.72 238.017 165.464C237.377 165.197 236.465 165.064 235.281 165.064ZM235.281 169.048C233.702 169.048 232.465 168.84 231.569 168.424C230.684 167.997 230.241 167.379 230.241 166.568C230.241 165.757 230.684 165.139 231.569 164.712C232.465 164.285 233.702 164.072 235.281 164.072C236.86 164.072 238.092 164.285 238.977 164.712C239.873 165.139 240.321 165.757 240.321 166.568C240.321 167.379 239.873 167.997 238.977 168.424C238.092 168.84 236.86 169.048 235.281 169.048ZM231.681 177H240.545V178.024H230.401V174.584H238.817V173.304H230.353V172.312H240.113V175.544H231.681V177ZM241.777 170.024V171.08H228.785V170.024H241.777ZM255.626 166.136H247.386V165.144H250.858V163.736H252.17V165.144H255.626V166.136ZM249.402 168.792C249.402 169.165 249.589 169.464 249.962 169.688C250.346 169.912 250.863 170.024 251.514 170.024C252.154 170.024 252.661 169.912 253.034 169.688C253.418 169.464 253.61 169.165 253.61 168.792C253.61 168.419 253.418 168.125 253.034 167.912C252.661 167.688 252.154 167.576 251.514 167.576C250.863 167.576 250.346 167.688 249.962 167.912C249.589 168.125 249.402 168.419 249.402 168.792ZM256.154 172.488C255.386 172.627 254.602 172.733 253.802 172.808C253.013 172.883 252.229 172.936 251.45 172.968C250.682 173 249.935 173.021 249.21 173.032C248.485 173.043 247.807 173.048 247.178 173.048L247.034 171.992C247.61 171.992 248.218 171.992 248.858 171.992C249.498 171.981 250.165 171.965 250.858 171.944V170.904C250.026 170.819 249.365 170.595 248.874 170.232C248.394 169.869 248.154 169.389 248.154 168.792C248.154 168.461 248.234 168.168 248.394 167.912C248.554 167.645 248.778 167.421 249.066 167.24C249.365 167.059 249.717 166.92 250.122 166.824C250.538 166.717 251.002 166.664 251.514 166.664C252.015 166.664 252.469 166.717 252.874 166.824C253.29 166.92 253.642 167.059 253.93 167.24C254.229 167.421 254.458 167.645 254.618 167.912C254.778 168.168 254.858 168.461 254.858 168.792C254.858 169.379 254.618 169.859 254.138 170.232C253.658 170.595 253.002 170.819 252.17 170.904V171.896C252.831 171.864 253.487 171.821 254.138 171.768C254.789 171.715 255.429 171.64 256.058 171.544L256.154 172.488ZM248.778 174.184H258.218V178.184H256.906V175.224H248.778V174.184ZM260.33 169.272H258.218V173.464H256.906V163.848H258.218V168.184H260.33V169.272ZM273.593 174.328H272.281V163.848H273.593V174.328ZM263.433 168.36C263.433 168.712 263.491 169.037 263.609 169.336C263.737 169.635 263.907 169.891 264.121 170.104C264.345 170.317 264.606 170.483 264.905 170.6C265.203 170.717 265.529 170.776 265.881 170.776C266.233 170.776 266.558 170.717 266.857 170.6C267.166 170.483 267.433 170.317 267.657 170.104C267.881 169.891 268.051 169.635 268.169 169.336C268.297 169.037 268.361 168.712 268.361 168.36C268.361 168.008 268.297 167.688 268.169 167.4C268.051 167.112 267.881 166.861 267.657 166.648C267.433 166.435 267.166 166.269 266.857 166.152C266.558 166.035 266.233 165.976 265.881 165.976C265.529 165.976 265.203 166.035 264.905 166.152C264.606 166.269 264.345 166.435 264.121 166.648C263.907 166.861 263.737 167.112 263.609 167.4C263.491 167.688 263.433 168.008 263.433 168.36ZM269.641 168.36C269.641 168.883 269.545 169.363 269.353 169.8C269.161 170.227 268.894 170.6 268.553 170.92C268.222 171.229 267.827 171.475 267.369 171.656C266.91 171.827 266.414 171.912 265.881 171.912C265.347 171.912 264.851 171.827 264.393 171.656C263.945 171.475 263.55 171.229 263.209 170.92C262.878 170.6 262.617 170.227 262.425 169.8C262.243 169.363 262.153 168.883 262.153 168.36C262.153 167.848 262.243 167.379 262.425 166.952C262.617 166.515 262.878 166.141 263.209 165.832C263.55 165.512 263.945 165.267 264.393 165.096C264.851 164.925 265.347 164.84 265.881 164.84C266.414 164.84 266.91 164.925 267.369 165.096C267.827 165.267 268.222 165.512 268.553 165.832C268.894 166.141 269.161 166.515 269.353 166.952C269.545 167.379 269.641 167.848 269.641 168.36ZM274.025 176.792V177.864H264.361V173.256H265.673V176.792H274.025ZM67.2669 195.896C67.5976 195.896 67.8963 195.843 68.1629 195.736C68.4403 195.619 68.6803 195.464 68.8829 195.272C69.0856 195.08 69.2403 194.851 69.3469 194.584C69.4643 194.307 69.5229 194.008 69.5229 193.688C69.5229 193.368 69.4643 193.075 69.3469 192.808C69.2403 192.531 69.0856 192.296 68.8829 192.104C68.6803 191.901 68.4403 191.747 68.1629 191.64C67.8963 191.523 67.5976 191.464 67.2669 191.464C66.9469 191.464 66.6483 191.523 66.3709 191.64C66.0936 191.747 65.8536 191.901 65.6509 192.104C65.4589 192.296 65.3043 192.531 65.1869 192.808C65.0803 193.075 65.0269 193.368 65.0269 193.688C65.0269 194.008 65.0803 194.307 65.1869 194.584C65.3043 194.851 65.4589 195.08 65.6509 195.272C65.8536 195.464 66.0936 195.619 66.3709 195.736C66.6483 195.843 66.9469 195.896 67.2669 195.896ZM67.2669 190.376C67.7789 190.376 68.2483 190.461 68.6749 190.632C69.1016 190.792 69.4696 191.021 69.7789 191.32C70.0989 191.608 70.3443 191.955 70.5149 192.36C70.6856 192.765 70.7709 193.208 70.7709 193.688C70.7709 194.179 70.6856 194.627 70.5149 195.032C70.3443 195.437 70.0989 195.784 69.7789 196.072C69.4696 196.36 69.1016 196.584 68.6749 196.744C68.2483 196.904 67.7789 196.984 67.2669 196.984C66.7656 196.984 66.3016 196.904 65.8749 196.744C65.4483 196.584 65.0803 196.36 64.7709 196.072C64.4616 195.784 64.2216 195.437 64.0509 195.032C63.8803 194.627 63.7949 194.179 63.7949 193.688C63.7949 193.208 63.8803 192.765 64.0509 192.36C64.2216 191.955 64.4616 191.608 64.7709 191.32C65.0803 191.021 65.4483 190.792 65.8749 190.632C66.3016 190.461 66.7656 190.376 67.2669 190.376ZM67.9069 188.136H71.4429V189.192H62.9789V188.136H66.5949V186.008H67.9069V188.136ZM76.4669 192.84H74.1149V200.184H72.8029V185.848H74.1149V191.736H76.4669V192.84ZM79.6017 195.768C80.1244 195.768 80.631 195.763 81.1217 195.752C81.623 195.731 82.1137 195.704 82.5937 195.672C83.0844 195.64 83.575 195.597 84.0657 195.544C84.567 195.491 85.0844 195.421 85.6177 195.336L85.7297 196.424C85.1644 196.509 84.6204 196.584 84.0977 196.648C83.5857 196.701 83.0737 196.744 82.5617 196.776C82.0497 196.808 81.5324 196.829 81.0097 196.84C80.487 196.851 79.9484 196.856 79.3937 196.856H78.3057V191.192H83.2497V188.184H78.2737V187.128H84.5457V192.264H79.6017V195.768ZM89.5857 185.816V200.2H88.2737V194.104H85.3457V193.032H88.2737V190.168H85.4417V189.096H88.2737V185.816H89.5857ZM98.4164 188.136H94.4484V192.744H98.4164V188.136ZM99.6964 189.432V191.432H102.992V189.432H99.6964ZM99.6964 193.784H93.1524V187.096H99.6964V188.36H102.992V185.848H104.32V196.312H102.992V192.504H99.6964V193.784ZM104.656 198.792V199.864H95.0884V195.384H96.4004V198.792H104.656ZM116.377 193.768C116.548 192.712 116.655 191.784 116.697 190.984C116.74 190.173 116.761 189.437 116.761 188.776H111.257V187.096H118.841V188.296C118.841 189.011 118.825 189.827 118.793 190.744C118.761 191.661 118.644 192.728 118.441 193.944L116.377 193.768ZM115.225 195.608C115.94 195.587 116.649 195.555 117.353 195.512C118.068 195.459 118.761 195.389 119.433 195.304L119.545 196.824C118.799 196.952 118.036 197.053 117.257 197.128C116.489 197.203 115.721 197.261 114.953 197.304C114.196 197.347 113.455 197.379 112.729 197.4C112.015 197.411 111.337 197.416 110.697 197.416L110.505 195.688C110.911 195.688 111.332 195.688 111.769 195.688C112.217 195.688 112.676 195.683 113.145 195.672V191.32H115.225V195.608ZM124.201 193.32H122.217V200.36H120.105V185.624H122.217V191.56H124.201V193.32ZM135.56 189.192V185.64H137.672V194.408H135.56V190.904H133.352V189.192H135.56ZM133.208 194.008C132.408 193.741 131.731 193.363 131.176 192.872C130.621 192.371 130.184 191.795 129.864 191.144C129.544 191.891 129.091 192.552 128.504 193.128C127.928 193.693 127.208 194.12 126.344 194.408L125.272 192.744C125.859 192.541 126.365 192.28 126.792 191.96C127.219 191.629 127.571 191.267 127.848 190.872C128.136 190.467 128.349 190.04 128.488 189.592C128.637 189.133 128.723 188.675 128.744 188.216H125.848V186.52H133.768V188.216H130.904C130.915 188.632 130.989 189.048 131.128 189.464C131.267 189.88 131.469 190.275 131.736 190.648C132.013 191.011 132.355 191.341 132.76 191.64C133.176 191.939 133.667 192.179 134.232 192.36L133.208 194.008ZM132.696 198.792C133.667 198.792 134.397 198.691 134.888 198.488C135.379 198.285 135.624 197.976 135.624 197.56C135.624 197.144 135.379 196.835 134.888 196.632C134.397 196.429 133.667 196.328 132.696 196.328C130.733 196.328 129.752 196.739 129.752 197.56C129.752 198.381 130.733 198.792 132.696 198.792ZM132.696 194.728C133.475 194.728 134.173 194.792 134.792 194.92C135.421 195.048 135.949 195.235 136.376 195.48C136.813 195.715 137.149 196.008 137.384 196.36C137.619 196.712 137.736 197.112 137.736 197.56C137.736 198.008 137.619 198.408 137.384 198.76C137.149 199.112 136.813 199.405 136.376 199.64C135.949 199.885 135.421 200.072 134.792 200.2C134.173 200.328 133.475 200.392 132.696 200.392C131.907 200.392 131.197 200.328 130.568 200.2C129.949 200.072 129.421 199.885 128.984 199.64C128.557 199.405 128.227 199.112 127.992 198.76C127.757 198.408 127.64 198.008 127.64 197.56C127.64 197.112 127.757 196.712 127.992 196.36C128.227 196.008 128.557 195.715 128.984 195.48C129.421 195.235 129.949 195.048 130.568 194.92C131.197 194.792 131.907 194.728 132.696 194.728ZM147.2 192.568H153.504V190.504H147.2V192.568ZM157.04 196.952V198.664H143.696V196.952H149.296V194.248H145.104V186.552H147.2V188.84H153.504V186.552H155.584V194.248H151.408V196.952H157.04ZM166.303 187.16C166.303 188.291 166.196 189.368 165.983 190.392C165.769 191.405 165.401 192.365 164.879 193.272C164.367 194.168 163.679 195.005 162.815 195.784C161.951 196.552 160.863 197.251 159.551 197.88L158.447 196.216C159.385 195.768 160.196 195.283 160.879 194.76C161.561 194.237 162.132 193.677 162.591 193.08C163.049 192.472 163.401 191.821 163.647 191.128C163.903 190.424 164.068 189.661 164.143 188.84H159.231V187.16H166.303ZM170.687 185.624V200.36H168.559V185.624H170.687ZM183.341 187.176H174.925V186.248H184.637V189.24H176.253V190.472H184.893V191.416H174.957V188.344H183.341V187.176ZM176.173 199.048H185.133V199.992H174.877V196.808H183.389V195.608H174.845V194.664H184.685V197.72H176.173V199.048ZM186.301 192.504V193.496H173.293V192.504H186.301ZM203.078 190.312H193.334V186.04H194.63V189.256H203.078V190.312ZM198.726 192.632V194.136H202.95V197.448H194.534V199H203.43V200.024H193.222V196.488H201.638V195.144H193.19V194.136H197.414V192.632H191.59V191.56H204.598V192.632H198.726ZM208.133 195.656C208.741 195.656 209.312 195.651 209.845 195.64C210.389 195.619 210.906 195.592 211.397 195.56C211.898 195.528 212.394 195.485 212.885 195.432C213.376 195.368 213.877 195.288 214.389 195.192L214.517 196.28C213.973 196.376 213.445 196.456 212.933 196.52C212.432 196.573 211.914 196.621 211.381 196.664C210.858 196.696 210.314 196.717 209.749 196.728C209.194 196.739 208.592 196.744 207.941 196.744H206.837V191.128H211.941V188.232H206.805V187.16H213.221V192.184H208.133V195.656ZM218.117 185.816V200.2H216.805V192.424H214.069V191.352H216.805V185.816H218.117ZM221.812 191.768C222.43 191.672 223.038 191.507 223.636 191.272C224.233 191.027 224.766 190.733 225.236 190.392C225.705 190.04 226.078 189.651 226.356 189.224C226.644 188.787 226.788 188.333 226.788 187.864V187.784H222.26V186.728H232.74V187.784H228.244V187.864C228.244 188.333 228.382 188.787 228.66 189.224C228.948 189.651 229.326 190.04 229.796 190.392C230.265 190.733 230.798 191.027 231.396 191.272C232.004 191.507 232.622 191.672 233.252 191.768L232.74 192.808C232.185 192.712 231.641 192.568 231.108 192.376C230.574 192.184 230.078 191.949 229.62 191.672C229.161 191.384 228.75 191.064 228.388 190.712C228.025 190.349 227.737 189.955 227.524 189.528C227.3 189.955 227.006 190.349 226.644 190.712C226.281 191.064 225.87 191.384 225.412 191.672C224.964 191.949 224.473 192.184 223.94 192.376C223.406 192.568 222.862 192.712 222.308 192.808L221.812 191.768ZM234.02 195.08H228.148V200.184H226.836V195.08H221.044V194.008H234.004L234.02 195.08ZM240.002 189.88C240.002 190.456 240.066 191.032 240.194 191.608C240.333 192.184 240.525 192.733 240.77 193.256C241.026 193.779 241.336 194.259 241.698 194.696C242.072 195.123 242.493 195.48 242.962 195.768L242.21 196.792C241.528 196.376 240.946 195.811 240.466 195.096C239.997 194.371 239.634 193.571 239.378 192.696C239.122 193.656 238.738 194.52 238.226 195.288C237.725 196.056 237.117 196.664 236.402 197.112L235.586 196.12C236.077 195.832 236.514 195.464 236.898 195.016C237.293 194.568 237.624 194.072 237.89 193.528C238.168 192.973 238.376 192.392 238.514 191.784C238.664 191.165 238.738 190.547 238.738 189.928V187.192H240.002V189.88ZM243.778 186.152H245.01V199.48H243.778V192.072H241.41V190.984H243.778V186.152ZM247.938 185.832V200.184H246.69V185.832H247.938ZM254.961 197.256H258.961V193.88C258.332 194.029 257.66 194.104 256.945 194.104C256.241 194.104 255.58 194.029 254.961 193.88V197.256ZM256.945 187.768C256.369 187.768 255.836 187.832 255.345 187.96C254.865 188.088 254.449 188.269 254.097 188.504C253.756 188.728 253.484 189.005 253.281 189.336C253.089 189.667 252.993 190.029 252.993 190.424C252.993 190.829 253.089 191.197 253.281 191.528C253.484 191.848 253.756 192.125 254.097 192.36C254.449 192.584 254.865 192.76 255.345 192.888C255.836 193.016 256.369 193.08 256.945 193.08C257.521 193.08 258.049 193.016 258.529 192.888C259.02 192.76 259.441 192.584 259.793 192.36C260.145 192.125 260.417 191.848 260.609 191.528C260.812 191.197 260.913 190.829 260.913 190.424C260.913 190.029 260.812 189.667 260.609 189.336C260.417 189.005 260.145 188.728 259.793 188.504C259.441 188.269 259.02 188.088 258.529 187.96C258.049 187.832 257.521 187.768 256.945 187.768ZM263.489 197.256V198.344H250.449V197.256H253.649V193.384C253.041 193.075 252.567 192.669 252.225 192.168C251.895 191.656 251.729 191.075 251.729 190.424C251.729 189.869 251.857 189.368 252.113 188.92C252.369 188.461 252.727 188.072 253.185 187.752C253.655 187.432 254.209 187.187 254.849 187.016C255.489 186.835 256.188 186.744 256.945 186.744C257.713 186.744 258.412 186.835 259.041 187.016C259.681 187.187 260.231 187.432 260.689 187.752C261.159 188.072 261.521 188.461 261.777 188.92C262.033 189.368 262.161 189.869 262.161 190.424C262.161 191.075 261.996 191.651 261.665 192.152C261.335 192.653 260.871 193.059 260.273 193.368V197.256H263.489ZM266.56 199.208C266.272 199.208 266.021 199.107 265.808 198.904C265.605 198.701 265.504 198.435 265.504 198.104C265.504 197.773 265.605 197.501 265.808 197.288C266.021 197.075 266.272 196.968 266.56 196.968C266.848 196.968 267.093 197.075 267.296 197.288C267.509 197.501 267.616 197.773 267.616 198.104C267.616 198.435 267.509 198.701 267.296 198.904C267.093 199.107 266.848 199.208 266.56 199.208Z" fill="#7D6F5D"/>
<path d="M139.682 247.768C139.853 246.712 139.959 245.784 140.002 244.984C140.045 244.173 140.066 243.437 140.066 242.776H134.562V241.096H142.146V242.296C142.146 243.011 142.13 243.827 142.098 244.744C142.066 245.661 141.949 246.728 141.746 247.944L139.682 247.768ZM138.53 249.608C139.245 249.587 139.954 249.555 140.658 249.512C141.373 249.459 142.066 249.389 142.738 249.304L142.85 250.824C142.103 250.952 141.341 251.053 140.562 251.128C139.794 251.203 139.026 251.261 138.258 251.304C137.501 251.347 136.759 251.379 136.034 251.4C135.319 251.411 134.642 251.416 134.002 251.416L133.81 249.688C134.215 249.688 134.637 249.688 135.074 249.688C135.522 249.688 135.981 249.683 136.45 249.672V245.32H138.53V249.608ZM147.506 247.32H145.522V254.36H143.41V239.624H145.522V245.56H147.506V247.32ZM158.865 243.192V239.64H160.977V248.408H158.865V244.904H156.657V243.192H158.865ZM156.513 248.008C155.713 247.741 155.035 247.363 154.481 246.872C153.926 246.371 153.489 245.795 153.169 245.144C152.849 245.891 152.395 246.552 151.809 247.128C151.233 247.693 150.513 248.12 149.649 248.408L148.577 246.744C149.163 246.541 149.67 246.28 150.097 245.96C150.523 245.629 150.875 245.267 151.153 244.872C151.441 244.467 151.654 244.04 151.793 243.592C151.942 243.133 152.027 242.675 152.049 242.216H149.153V240.52H157.073V242.216H154.209C154.219 242.632 154.294 243.048 154.433 243.464C154.571 243.88 154.774 244.275 155.041 244.648C155.318 245.011 155.659 245.341 156.065 245.64C156.481 245.939 156.971 246.179 157.537 246.36L156.513 248.008ZM156.001 252.792C156.971 252.792 157.702 252.691 158.193 252.488C158.683 252.285 158.929 251.976 158.929 251.56C158.929 251.144 158.683 250.835 158.193 250.632C157.702 250.429 156.971 250.328 156.001 250.328C154.038 250.328 153.057 250.739 153.057 251.56C153.057 252.381 154.038 252.792 156.001 252.792ZM156.001 248.728C156.779 248.728 157.478 248.792 158.097 248.92C158.726 249.048 159.254 249.235 159.681 249.48C160.118 249.715 160.454 250.008 160.689 250.36C160.923 250.712 161.041 251.112 161.041 251.56C161.041 252.008 160.923 252.408 160.689 252.76C160.454 253.112 160.118 253.405 159.681 253.64C159.254 253.885 158.726 254.072 158.097 254.2C157.478 254.328 156.779 254.392 156.001 254.392C155.211 254.392 154.502 254.328 153.873 254.2C153.254 254.072 152.726 253.885 152.289 253.64C151.862 253.405 151.531 253.112 151.297 252.76C151.062 252.408 150.945 252.008 150.945 251.56C150.945 251.112 151.062 250.712 151.297 250.36C151.531 250.008 151.862 249.715 152.289 249.48C152.726 249.235 153.254 249.048 153.873 248.92C154.502 248.792 155.211 248.728 156.001 248.728ZM170.505 246.568H176.809V244.504H170.505V246.568ZM180.345 250.952V252.664H167.001V250.952H172.601V248.248H168.409V240.552H170.505V242.84H176.809V240.552H178.889V248.248H174.713V250.952H180.345ZM189.607 241.16C189.607 242.291 189.501 243.368 189.287 244.392C189.074 245.405 188.706 246.365 188.183 247.272C187.671 248.168 186.983 249.005 186.119 249.784C185.255 250.552 184.167 251.251 182.855 251.88L181.751 250.216C182.69 249.768 183.501 249.283 184.183 248.76C184.866 248.237 185.437 247.677 185.895 247.08C186.354 246.472 186.706 245.821 186.951 245.128C187.207 244.424 187.373 243.661 187.447 242.84H182.535V241.16H189.607ZM193.991 239.624V254.36H191.863V239.624H193.991Z" fill="#7D6F5D"/>
<path d="M111 231H218V227H111V231ZM219 232V262H223V232H219ZM218 263H111V267H218V263ZM110 262V232H106V262H110ZM111 263C110.448 263 110 262.552 110 262H106C106 264.761 108.239 267 111 267V263ZM219 262C219 262.552 218.552 263 218 263V267C220.761 267 223 264.761 223 262H219ZM218 231C218.552 231 219 231.448 219 232H223C223 229.239 220.761 227 218 227V231ZM111 227C108.239 227 106 229.239 106 232H110C110 231.448 110.448 231 111 231V227Z" fill="#7D6F5D"/>
<defs>
<filter id="filter0_d" x="0" y="0" width="330" height="330" filterUnits="userSpaceOnUse" color-interpolation-filters="sRGB">
<feFlood flood-opacity="0" result="BackgroundImageFix"/>
<feColorMatrix in="SourceAlpha" type="matrix" values="0 0 0 0 0 0 0 0 0 0 0 0 0 0 0 0 0 0 127 0"/>
<feOffset/>
<feGaussianBlur stdDeviation="7.5"/>
<feColorMatrix type="matrix" values="0 0 0 0 0.404167 0 0 0 0 0.188793 0 0 0 0 0.0976736 0 0 0 0.3 0"/>
<feBlend mode="normal" in2="BackgroundImageFix" result="effect1_dropShadow"/>
<feBlend mode="normal" in="SourceGraphic" in2="effect1_dropShadow" result="shape"/>
</filter>
</defs>
</svg>
