<svg width="38" height="14" viewBox="0 0 38 14" fill="none" xmlns="http://www.w3.org/2000/svg">
<path d="M7 14H31C31.6423 14 32.2606 13.918 32.855 13.754C33.4563 13.5832 34.0166 13.3475 34.5359 13.0469C35.0551 12.7394 35.5266 12.3738 35.9502 11.9502C36.3738 11.5266 36.736 11.0551 37.0366 10.5359C37.3441 10.0166 37.5798 9.45974 37.7438 8.8653C37.9146 8.26403 38 7.64226 38 7C38 6.35774 37.9146 5.73938 37.7438 5.14495C37.5798 4.54368 37.3441 3.98341 37.0366 3.46413C36.736 2.94485 36.3738 2.4734 35.9502 2.04978C35.5266 1.62616 35.0551 1.26403 34.5359 0.963397C34.0166 0.65593 33.4563 0.420205 32.855 0.256223C32.2606 0.0854075 31.6423 0 31 0H7C6.35774 0 5.73597 0.0854075 5.1347 0.256223C4.54026 0.420205 3.98341 0.65593 3.46413 0.963397C2.94485 1.26403 2.4734 1.62616 2.04978 2.04978C1.62616 2.4734 1.26061 2.94485 0.953148 3.46413C0.652513 3.98341 0.416789 4.54368 0.245974 5.14495C0.0819912 5.73938 0 6.35774 0 7C0 7.64226 0.0819912 8.26403 0.245974 8.8653C0.416789 9.45974 0.652513 10.0166 0.953148 10.5359C1.26061 11.0551 1.62616 11.5266 2.04978 11.9502C2.4734 12.3738 2.94485 12.7394 3.46413 13.0469C3.98341 13.3475 4.54026 13.5832 5.1347 13.754C5.73597 13.918 6.35774 14 7 14Z" fill="#282725"/>
</svg>
