<svg width="124" height="23" viewBox="0 0 124 23" fill="none" xmlns="http://www.w3.org/2000/svg">
<path d="M11.1847 0L13.6958 7.72828H21.8217L15.2477 12.5046L17.7588 20.2329L11.1847 15.4566L4.61063 20.2329L7.12169 12.5046L0.54763 7.72828H8.67362L11.1847 0Z" fill="#FFFCF9"/>
<path d="M36.8932 0L39.4217 7.78194L47.6041 7.78195L40.9844 12.5915L43.5129 20.3734L36.8932 15.5639L30.2735 20.3734L32.802 12.5915L26.1823 7.78195L34.3647 7.78194L36.8932 0Z" fill="#FFFCF9"/>
<path d="M62.5243 0L65.0528 7.78194L73.2352 7.78195L66.6155 12.5915L69.144 20.3734L62.5243 15.5639L55.9046 20.3734L58.4331 12.5915L51.8134 7.78195L59.9958 7.78194L62.5243 0Z" fill="#FFFCF9"/>
<path d="M87.3787 0L89.9072 7.78194L98.0896 7.78195L91.4699 12.5915L93.9984 20.3734L87.3787 15.5639L80.7589 20.3734L83.2874 12.5915L76.6677 7.78195L84.8501 7.78194L87.3787 0Z" fill="#FFFCF9"/>
<path d="M113.01 0L115.538 7.78194L123.721 7.78195L117.101 12.5915L119.629 20.3734L113.01 15.5639L106.39 20.3734L108.918 12.5915L102.299 7.78195L110.481 7.78194L113.01 0Z" fill="#FFFCF9" fill-opacity="0.4"/>
</svg>
