<svg width="14" height="14" viewBox="0 0 14 14" fill="none" xmlns="http://www.w3.org/2000/svg">
<path opacity="0.5" d="M7 0C7.64226 0 8.26061 0.0854075 8.85505 0.256223C9.45632 0.420205 10.0166 0.65593 10.5359 0.963397C11.0551 1.26403 11.5266 1.62616 11.9502 2.04978C12.3738 2.4734 12.736 2.94485 13.0366 3.46413C13.3441 3.98341 13.5798 4.54368 13.7438 5.14495C13.9146 5.73938 14 6.35774 14 7C14 7.64226 13.9146 8.26403 13.7438 8.8653C13.5798 9.45974 13.3441 10.0166 13.0366 10.5359C12.736 11.0551 12.3738 11.5266 11.9502 11.9502C11.5266 12.3738 11.0551 12.7394 10.5359 13.0469C10.0166 13.3475 9.45632 13.5832 8.85505 13.754C8.26061 13.918 7.64226 14 7 14C6.35774 14 5.73597 13.918 5.1347 13.754C4.54026 13.5832 3.98341 13.3475 3.46413 13.0469C2.94485 12.7394 2.4734 12.3738 2.04978 11.9502C1.62616 11.5266 1.26061 11.0551 0.953148 10.5359C0.652513 10.0166 0.416789 9.45974 0.245974 8.8653C0.0819912 8.26403 0 7.64226 0 7C0 6.35774 0.0819912 5.73938 0.245974 5.14495C0.416789 4.54368 0.652513 3.98341 0.953148 3.46413C1.26061 2.94485 1.62616 2.4734 2.04978 2.04978C2.4734 1.62616 2.94485 1.26403 3.46413 0.963397C3.98341 0.65593 4.54026 0.420205 5.1347 0.256223C5.73597 0.0854075 6.35774 0 7 0Z" fill="#282725" fill-opacity="0.4"/>
</svg>
