<svg width="98" height="81" viewBox="0 0 98 81" fill="none" xmlns="http://www.w3.org/2000/svg">
<g opacity="0.7" clip-path="url(#clip0)">
<path fill-rule="evenodd" clip-rule="evenodd" d="M6.53935 9.81818C6.53935 8.00498 8.00489 6.54545 9.79996 6.54545H46.1144L6.53935 28.988V9.81818ZM6.53935 29.4583V52.3636H91.4606V9.81818C91.4606 8.00498 89.995 6.54545 88.2 6.54545H46.9437L6.53935 29.4583ZM49 65.4545C49.8663 65.4545 50.6972 65.1097 51.3098 64.496C51.9225 63.8822 52.2666 63.0498 52.2666 62.1818C52.2666 61.5345 52.075 60.9018 51.7161 60.3636C51.3572 59.8254 50.847 59.4059 50.2501 59.1582C49.6532 58.9105 48.9963 58.8457 48.3627 58.972C47.729 59.0983 47.1469 59.41 46.6901 59.8676C46.2332 60.3253 45.9221 60.9085 45.7961 61.5433C45.67 62.1782 45.7347 62.8362 45.982 63.4342C46.2292 64.0322 46.6479 64.5434 47.1851 64.903C47.7223 65.2626 48.3539 65.4545 49 65.4545ZM9.79996 0C4.3785 0 -0.00610352 4.40147 -0.00610352 9.81818V62.1818C-0.00610352 67.5985 4.3785 72 9.79996 72H40.425L39.6083 78.5455H26.1333C24.6083 78.5455 23.327 79.5884 22.9637 81H75.0363C74.6729 79.5884 73.3916 78.5455 71.8666 78.5455H58.3916L57.575 72H88.2C93.6214 72 98.006 67.5985 98.006 62.1818V9.81818C98.006 4.40147 93.6214 0 88.2 0H9.79996ZM48.5916 20.4545L56.0178 24.75V33.3409L48.5916 37.6364L41.1655 33.3409V24.75L48.5916 20.4545Z" fill="#7D6F5D"/>
</g>
<defs>
<clipPath id="clip0">
<rect width="98" height="81" fill="white"/>
</clipPath>
</defs>
</svg>
