<svg width="33" height="55" viewBox="0 0 33 55" fill="none" xmlns="http://www.w3.org/2000/svg">
<g opacity="0.7" clip-path="url(#clip0)">
<path fill-rule="evenodd" clip-rule="evenodd" d="M27.4998 0.247925H5.49976C4.04107 0.247925 2.64212 0.822167 1.61067 1.84432C0.579218 2.86648 -0.000244141 4.25283 -0.000244141 5.69838V49.302C-0.000244141 50.7475 0.579218 52.1339 1.61067 53.156C2.64212 54.1782 4.04107 54.7524 5.49976 54.7524H27.4998C28.9584 54.7524 30.3574 54.1782 31.3888 53.156C32.4203 52.1339 32.9998 50.7475 32.9998 49.302V5.69838C32.9998 4.25283 32.4203 2.86648 31.3888 1.84432C30.3574 0.822167 28.9584 0.247925 27.4998 0.247925ZM28.9998 47.374C28.9998 48.9861 27.6929 50.293 26.0808 50.293H6.91867C5.3066 50.293 3.99976 48.9861 3.99976 47.3741V26.107L28.9998 10.7065V47.374ZM28.9998 10.278L3.99976 25.6785V7.62631C3.99976 6.01423 5.3066 4.70738 6.91868 4.70738H26.0808C27.6929 4.70738 28.9998 6.01423 28.9998 7.6263V10.278ZM19.6968 25.0845L16.1244 23.0406L12.5521 25.0845V29.1723L16.1244 31.2162L19.6968 29.1723V25.0845Z" fill="#7D6F5D"/>
</g>
<defs>
<clipPath id="clip0">
<rect width="33" height="55" fill="white"/>
</clipPath>
</defs>
</svg>
