<svg width="136" height="338" viewBox="0 0 136 338" fill="none" xmlns="http://www.w3.org/2000/svg">
<g opacity="0.3">
<path d="M61.82 55.0334C61.7444 55.0145 61.6688 54.9956 61.5932 54.9578C61.4798 54.9389 61.442 54.9389 61.82 55.0334Z" fill="#FFF1E1"/>
<path d="M91.5113 43.2056C91.5302 43.1679 91.549 43.1302 91.549 43.0924C92.0395 41.6965 91.2472 39.829 89.9456 39.1499C88.4554 38.3576 86.984 38.6783 85.7201 39.697C85.6824 39.7347 85.6258 39.7724 85.5881 39.8101C85.5504 36.0751 85.6447 32.3212 85.871 28.5862C86.022 26.0962 82.7208 24.0212 80.6269 25.568C79.5517 26.3603 78.7595 27.2846 78.1181 28.3599C78.3067 27.926 78.4765 27.4921 78.6462 27.0394C79.6649 24.4928 76.7033 22.0782 74.3453 22.7385C71.4592 23.5496 69.5162 26.2849 69.4219 29.2276C69.271 29.3408 69.1201 29.454 69.0446 29.5106C68.8937 29.5671 68.7617 29.6049 68.6107 29.6426C68.573 29.6615 68.5542 29.6615 68.5353 29.6803C68.4976 29.6803 68.4221 29.6803 68.3467 29.6803C68.2901 29.6803 68.2335 29.6803 68.1958 29.6803C68.1769 29.6803 68.1392 29.6615 68.1203 29.6615C68.1015 29.6615 68.1014 29.6426 68.0826 29.6426C68.0637 29.6237 68.0449 29.6049 68.026 29.586C68.026 29.5671 68.0071 29.5671 68.0071 29.5483C67.8562 29.2276 67.6676 28.9258 67.5166 28.6051C67.4789 28.5108 67.4412 28.4542 67.4223 28.4165C67.3846 28.341 67.3657 28.2844 67.328 28.209C67.2526 28.0392 67.196 27.8694 67.1205 27.6996C67.3092 27.1149 67.4224 26.4924 67.4601 25.8321C67.5544 24.3796 66.3094 22.7951 64.8946 22.4744C63.4421 22.1348 62.2537 22.6442 61.3105 23.6628C60.8766 23.8326 60.4805 24.0778 60.1221 24.4174C59.2166 25.2851 58.6884 26.2849 58.3866 27.4167C58.33 27.4355 58.2923 27.4733 58.2357 27.4921C58.1225 27.5487 57.7641 27.7185 57.7453 27.7185C57.5755 27.794 57.4057 27.8505 57.2359 27.926C55.2364 28.7371 53.1991 29.6426 51.6334 31.114C51.6523 30.3783 51.69 29.6237 51.7277 28.8881C51.8409 27.0583 50.0489 25.3228 48.2379 25.3983C46.2573 25.4926 44.8613 26.9262 44.7482 28.8881C44.4275 34.1888 44.767 39.546 45.7668 44.7713C45.6348 44.5827 45.5027 44.394 45.3707 44.1865C44.9745 43.6017 44.635 42.9792 44.2954 42.3567C44.1445 42.0738 43.9936 41.772 43.8616 41.4701C43.8238 41.3947 43.7861 41.3004 43.7484 41.2061C43.7295 41.1872 43.7295 41.1495 43.7107 41.0929C43.4843 40.4138 43.2391 39.7536 43.0316 39.0745C42.5222 37.3201 40.5416 36.0563 38.7307 36.641C36.9386 37.2258 35.7502 39.0556 36.2972 40.942C37.297 44.4129 38.9759 47.4688 41.2395 50.2606C42.0695 51.2981 43.6729 51.5056 44.9368 51.0529C45.5216 58.5607 49.1434 65.7666 55.2364 69.9543C55.2364 69.9732 55.2364 69.9921 55.2364 70.0298C54.9723 73.0291 55.2552 76.1228 56.0664 79.0089C56.1796 79.4239 56.3305 79.8578 56.5003 80.2728C56.2362 80.5369 56.0098 80.8198 55.8211 81.1405C55.2552 82.1214 55.0666 83.3853 55.3684 84.4794C55.708 85.7433 56.7078 86.479 57.8207 87.0071C59.4619 87.7994 61.235 88.4408 63.0837 88.4031C65.3473 88.3465 67.328 87.3844 68.8183 85.8376C69.0258 85.8753 69.2333 85.8942 69.4219 85.8942C71.1762 85.8187 73.0815 84.3474 72.9117 82.4044C72.8362 81.5367 72.7608 80.6689 72.7042 79.8012C72.6287 78.858 72.3646 78.028 71.6855 77.3301C71.6667 77.3112 71.629 77.2735 71.6101 77.2546C71.5158 75.8587 71.2894 74.4816 71.0064 73.0857C72.9494 72.633 74.8169 71.8596 76.5147 70.7466C79.929 68.483 82.6831 65.1064 83.8338 61.1639C83.8526 61.145 83.8527 61.145 83.8715 61.1261C86.2672 58.4098 87.267 55.0897 86.8708 51.5811C87.0217 51.4679 87.1727 51.3359 87.3047 51.2038L90.9265 47.299C91.9829 46.1483 92.2281 44.5261 91.5113 43.2056ZM60.7635 39.8667C60.8012 39.8479 60.8389 39.829 60.8389 39.8101L60.8578 39.7913C60.8955 39.7724 60.9144 39.7724 60.9521 39.7535C60.8767 39.829 60.7257 39.9233 60.6503 39.9233C60.6691 39.9233 60.7069 39.9045 60.7635 39.8667ZM68.0448 57.8061C63.5741 56.5423 58.8582 57.5609 55.2175 60.315C55.1987 60.2961 55.1987 60.2773 55.1798 60.2584C55.2741 60.0886 55.3496 59.9 55.4062 59.7113C55.4816 59.5038 55.5571 59.2964 55.6325 59.0889C55.6514 59.07 55.6514 59.0511 55.6703 59.0323C55.8589 58.7116 56.0098 58.372 56.1984 58.0513C56.3116 57.8438 56.4436 57.6552 56.5757 57.4666C56.6134 57.3911 56.7266 57.2591 56.7832 57.1836C57.0284 56.9007 57.2737 56.6177 57.5566 56.3536C57.7264 56.1838 57.8962 56.0329 58.066 55.882C58.1037 55.8443 58.1603 55.8066 58.198 55.7688C58.1603 55.7877 58.1414 55.8066 58.1037 55.8254C58.1414 55.8066 58.1791 55.7877 58.2169 55.75C58.3678 55.6557 58.4998 55.5613 58.3489 55.6745C58.5753 55.5236 58.7827 55.3916 59.028 55.2595C59.028 55.2595 59.1034 55.2218 59.1789 55.1841C59.2732 55.1463 59.5939 55.0143 59.6128 54.9954C59.7825 54.9388 59.9335 54.9011 60.1032 54.8634C60.141 54.8445 60.1976 54.8445 60.2353 54.8257C60.4239 54.8445 60.9144 54.8634 61.0841 54.8445C61.1785 54.8634 61.2728 54.8822 61.2728 54.8822C61.3671 54.9011 61.4614 54.9388 61.5557 54.9766C61.6312 54.9954 61.7255 55.0143 61.7821 55.052C62.1971 55.2218 62.6121 55.4104 63.046 55.5802C63.725 55.8254 64.5551 55.9952 65.2719 55.9763C66.5923 55.9386 67.7241 55.4104 68.8371 54.7313C68.856 54.7125 68.988 54.6182 69.1201 54.5427C69.1578 54.5427 69.2144 54.5238 69.271 54.5238C69.3276 54.5238 69.3842 54.5238 69.4219 54.5238C69.5728 54.5616 69.7237 54.5993 69.8746 54.637C69.9312 54.6559 69.969 54.6559 70.0067 54.6747C70.1387 54.7502 70.2707 54.8634 70.3462 54.92C70.3839 54.9388 70.4217 54.9766 70.4594 54.9954C70.648 55.1841 70.9687 55.5425 70.8933 55.4104C70.9876 55.5425 71.0819 55.6934 71.1573 55.8254C71.1951 55.882 71.3272 56.1461 71.4215 56.3159C71.4781 56.4857 71.6101 56.8063 71.6101 56.7875C71.6667 56.9761 71.7421 57.1836 71.7799 57.3723C71.9119 57.8627 72.0251 58.372 72.1194 58.8814C72.1383 58.9945 72.1572 59.1077 72.176 59.2398C72.1949 59.3152 72.2137 59.4284 72.2137 59.485C72.2137 59.485 72.2137 59.485 72.2137 59.5039C72.2326 59.6359 72.2515 59.7679 72.2515 59.9C70.931 59.0323 69.6483 58.2589 68.0448 57.8061Z" fill="#FFF1E1"/>
<path d="M58.2148 55.7506C58.2719 55.7125 58.3099 55.6935 58.348 55.6745C58.3099 55.6935 58.2719 55.7316 58.2148 55.7506Z" fill="#FFF1E1"/>
<path d="M72.2315 59.4668C72.2126 59.3723 72.2126 59.2967 72.1937 59.221C72.1748 59.1076 72.1559 59.0698 72.2315 59.4668Z" fill="#FFF1E1"/>
<path d="M58.9338 149.71C58.6509 149.333 58.3679 149.031 58.0472 148.767C57.9152 148.352 57.7454 147.956 57.5191 147.579C55.4252 144.07 51.1431 145.164 47.9363 146.145C44.9558 147.05 42.2017 148.427 39.4476 149.861C39.1647 150.012 38.8817 150.144 38.5799 150.295H38.5611C38.3158 150.37 38.0706 150.465 37.8254 150.54C37.6933 150.578 37.5613 150.597 37.4292 150.634C37.4104 150.634 37.4103 150.634 37.3915 150.634C37.3726 150.389 37.3538 150.125 37.3349 149.88C37.2217 148.39 36.3351 146.881 34.7694 146.522C33.3358 146.201 31.5249 146.711 30.8269 148.126C30.0347 149.729 29.9026 151.332 30.4685 152.936C30.4685 154.049 30.4119 155.162 30.2987 156.275C30.2799 156.482 30.261 156.671 30.2233 156.878C30.2044 156.954 30.1856 157.086 30.1667 157.199C30.0912 157.708 29.9969 158.237 29.8837 158.746C29.6762 159.821 29.3933 160.877 29.0915 161.934C28.7896 162.934 28.4312 163.914 28.0539 164.895C28.0351 164.952 28.0162 165.009 27.9974 165.027C27.9974 165.046 27.9785 165.046 27.9785 165.065C27.8653 165.31 27.771 165.537 27.6578 165.782C27.4315 166.254 27.2051 166.725 26.9787 167.197C26.4694 168.178 25.9224 169.121 25.3376 170.045C25.0546 170.479 24.7717 170.913 24.4698 171.347C24.3189 171.554 24.168 171.762 24.0171 171.988C23.9794 172.026 23.9605 172.064 23.9417 172.101C23.9039 172.139 23.8662 172.196 23.8096 172.271C23.6398 172.479 23.4889 172.724 23.3569 172.969C22.9796 173.195 22.6401 173.478 22.376 173.818C21.3951 175.082 21.3196 177.289 22.6401 178.402C23.753 179.326 24.9226 180.213 26.2053 180.892C26.2808 180.93 26.3562 180.967 26.4317 181.005L29.431 183.005C30.959 184.023 33.3547 183.344 34.2035 181.76C34.4676 181.269 34.5997 180.76 34.6374 180.25C35.9201 178.836 36.8445 176.949 37.8065 175.365C39.8626 171.969 41.8245 168.517 43.692 165.009H43.7108H46.314C47.1252 165.009 47.9363 164.688 48.5588 164.16C51.8034 163.99 54.9914 163.009 57.6511 161.123C58.8207 160.293 59.5941 158.878 59.3489 157.482C60.4807 154.935 60.6504 151.974 58.9338 149.71ZM34.7506 166.725C34.8826 166.367 35.0147 166.027 35.1467 165.669C35.2033 165.688 35.2599 165.707 35.3165 165.744C35.1278 166.065 34.9392 166.386 34.7506 166.725ZM36.9388 150.427C36.9199 150.408 36.901 150.37 36.8822 150.314C36.901 150.333 36.901 150.37 36.9199 150.408C36.8444 150.314 36.769 150.219 36.7501 150.219C36.8633 150.201 36.9765 150.427 36.9954 150.484C36.9765 150.465 36.9576 150.446 36.9388 150.427Z" fill="#FFF1E1"/>
<path d="M126.58 218.789C125.298 218.034 123.392 218.204 122.355 219.336C122.317 219.374 122.298 219.412 122.261 219.449C121.883 217.959 120.374 216.846 118.846 216.827C118.318 216.827 117.809 216.808 117.281 216.771C117.054 216.752 116.809 216.733 116.583 216.714C116.507 216.714 116.13 216.657 116.073 216.657C115.111 216.488 114.168 216.28 113.244 216.016C111.489 215.507 109.358 216.639 108.943 218.45C108.509 220.317 109.509 222.203 111.376 222.75C112.64 223.109 113.923 223.392 115.224 223.562C115.168 230.296 116.186 237.049 118.243 243.463C118.771 245.123 120.318 246.198 122.072 245.972C123.902 245.726 124.92 244.293 125.09 242.538C125.147 242.048 125.184 241.576 125.241 241.086C125.996 241.973 127.127 242.463 128.354 242.293C129.9 242.086 131.108 240.878 131.334 239.35C131.542 239.388 131.73 239.407 131.938 239.388C133.994 239.294 135.22 237.841 135.427 235.898C136.163 229.108 132.428 222.203 126.58 218.789Z" fill="#FFF1E1"/>
<path d="M35.4494 188.909C34.676 187.702 33.4499 186.815 32.3558 185.928C28.2623 182.552 23.9237 179.534 19.3021 176.912C19.5473 176.119 19.7925 175.346 20.0378 174.572C20.9243 171.724 21.528 168.8 21.9996 165.857C22.9616 159.84 23.8105 153.822 24.6971 147.805C25.0367 145.466 25.4328 143.108 25.7912 140.75C30.8655 133.242 31.3371 123.056 27.5455 114.793C26.7532 113.058 25.6969 111.398 24.4519 109.908C24.7537 109.474 25.0555 109.04 25.3762 108.625C26.4892 107.154 25.6592 104.664 24.1312 103.852C22.6221 103.041 21.1507 103.362 20.0189 104.381C19.4718 104.531 18.9437 104.833 18.4721 105.229C13.7373 109.474 10.8889 115.378 9.13454 121.396C7.47454 127.055 6.58795 132.959 5.90885 138.807C4.09794 146.956 3.06043 155.256 2.79634 163.613C2.64543 168.498 2.77747 173.384 3.21133 178.251C3.6452 183.174 4.07905 188.267 6.26724 192.776C6.90861 194.078 7.71976 195.266 8.68181 196.322C8.96476 196.737 9.30432 197.115 9.70045 197.454C10.0211 197.718 10.3418 197.945 10.7002 198.152C10.87 198.284 11.0398 198.397 11.2096 198.529C11.6811 198.907 12.1905 199.246 12.7564 199.529C12.9827 199.642 13.2091 199.737 13.4543 199.812C14.3975 200.246 15.3973 200.585 16.4348 200.812C20.8112 201.774 25.263 201.057 29.2999 199.246C31.5446 198.228 34.0158 196.681 35.374 194.587C36.5058 192.833 36.5624 190.644 35.4494 188.909Z" fill="white"/>
<path d="M129.371 214.13C127.409 197.964 125.014 181.854 122.127 165.839C120.713 157.954 119.166 150.087 117.525 142.24C116.11 135.506 114.846 128.621 112.62 122.094C110.602 116.17 107.697 110.625 103.132 106.418C103.32 105.909 103.509 105.399 103.698 104.909C104.358 103.192 102.981 101.004 101.264 100.608C99.2647 100.155 97.6613 101.212 96.9633 103.041C96.8124 103.456 96.6426 103.871 96.4917 104.305C95.5674 104.965 95.1147 106.003 95.0392 107.135C95.0015 107.625 94.9826 108.116 94.9637 108.606C92.8321 115.095 91.5117 121.83 93.3415 128.602C94.4167 132.582 96.3974 136.26 98.1894 139.939C98.6044 140.788 99.0194 141.655 99.3967 142.504C99.491 142.712 99.5854 142.919 99.6608 143.127C99.6985 143.202 99.7174 143.259 99.7363 143.315C99.7363 143.334 99.7551 143.353 99.774 143.391C99.9815 143.9 100.208 144.428 100.396 144.956C101.113 146.786 101.755 148.635 102.321 150.502C103.49 154.294 104.396 158.18 105.112 162.085C105.471 164.028 105.773 165.971 106.056 167.914C106.056 167.876 106.112 168.272 106.131 168.461C106.15 168.593 106.169 168.781 106.188 168.819C106.244 169.328 106.32 169.838 106.376 170.328C106.508 171.347 106.622 172.347 106.716 173.365C107.565 181.363 107.999 189.399 108.678 197.416C109.055 201.906 109.64 206.735 112.299 210.527C111.658 211.168 111.243 212.036 111.281 212.96C111.375 215.016 112.828 216.242 114.771 216.45C118.468 216.827 122.146 217.205 125.844 217.601C127.598 217.789 129.579 215.865 129.371 214.13ZM121.354 209.338C121.26 209.301 121.109 209.244 121.071 209.225C120.864 209.112 120.656 208.999 120.449 208.886C120.392 208.848 120.241 208.754 120.109 208.659C120.713 208.508 121.203 208.225 121.618 207.848C121.694 208.395 121.75 208.942 121.826 209.489C121.731 209.47 121.637 209.452 121.543 209.414C121.505 209.395 121.43 209.376 121.354 209.338Z" fill="white"/>
<path d="M90.2865 23.0403C90.2865 23.0403 90.2677 23.0592 90.2865 23.0403C90.2677 23.0592 90.2865 23.0403 90.2865 23.0403C90.2865 23.0026 90.2865 22.946 90.3054 22.9083C90.3431 22.3424 90.3243 22.946 90.2865 23.0403C90.3431 22.9271 90.4752 22.1349 90.5129 22.0405C90.5129 22.0217 90.5506 21.9462 90.5695 21.8519C90.6072 21.7764 90.6638 21.5878 90.7015 21.5501C90.8902 21.1917 91.0976 20.8521 91.3429 20.5126C92.8331 18.4187 90.8524 15.061 88.3247 15.2685C87.0797 15.3628 85.8347 15.4005 84.5897 15.3439C84.5331 15.3439 84.4765 15.3439 84.4388 15.3439C84.4011 15.3251 84.3633 15.3251 84.3067 15.3062C84.0615 15.2307 83.8163 15.193 83.571 15.1176C83.4767 15.0987 83.3824 15.061 83.307 15.0232H83.2881C83.1938 14.9666 82.8353 14.7026 82.7599 14.6648C82.7222 14.6271 82.7033 14.6082 82.6844 14.5894C82.6844 14.5894 82.6844 14.5894 82.6656 14.5705C82.6656 14.5516 82.6656 14.5516 82.6467 14.5328C82.5901 14.4385 82.5335 14.3253 82.4769 14.231C82.4769 14.2121 82.4581 14.1932 82.4581 14.1932C82.4392 14.1178 82.4204 14.0423 82.4015 13.9857C83.6276 12.7973 83.6465 10.76 82.6278 9.43958C81.496 7.96821 79.7417 7.8173 78.1194 8.53412C76.3085 9.3264 74.4976 10.1564 72.6867 10.9487C72.6678 9.81685 72.6489 8.70389 72.6301 7.57207C72.5924 5.74229 71.0455 3.98797 69.1403 4.08229C67.1596 4.1766 65.8958 5.55366 65.6694 7.42116C65.6694 7.47776 65.6505 7.51548 65.6505 7.55321C65.5939 8.11912 65.6317 7.51548 65.6694 7.42116C65.6505 7.49662 65.5751 7.87389 65.5562 7.91162C65.4996 8.10026 65.443 8.27003 65.3864 8.4398C65.2167 8.72276 65.028 9.04344 64.8771 9.3264C64.8771 9.34526 64.8771 9.34526 64.8582 9.36412C64.7451 9.49617 64.6318 9.62822 64.4998 9.7414C64.33 9.91117 63.8584 10.2507 63.9905 10.1941C63.7264 10.345 63.4623 10.4959 63.2171 10.6657C63.2171 10.6657 63.2171 10.6657 63.1982 10.6657C63.085 10.7034 62.953 10.7412 62.8398 10.7789C62.6701 10.8166 62.5003 10.8544 62.3494 10.8921C62.1984 10.8921 62.0476 10.8921 61.8966 10.8921C61.6703 10.7978 61.1232 10.7412 60.9723 10.7034C60.9534 10.7034 60.9157 10.6846 60.8969 10.6846C60.7648 10.6091 60.6139 10.5525 60.4819 10.4771C60.331 10.3828 60.1989 10.2884 60.048 10.1941C59.8028 9.9489 59.5575 9.70367 59.3123 9.47731C59.2368 9.34526 59.1425 9.23208 59.0671 9.10003C59.0482 9.08117 58.9727 8.9114 58.8973 8.79821C58.8784 8.76049 58.8596 8.7039 58.8407 8.64731C58.7841 8.4964 58.7652 8.32662 58.7087 8.17571C58.5766 6.3648 57.1996 4.59161 55.2189 4.68593C53.3514 4.76138 51.7102 6.21389 51.7291 8.17571C51.7291 8.53412 51.7291 8.89253 51.7102 9.23208C51.7102 9.40185 51.6913 9.55276 51.6725 9.72253C51.6536 9.91117 51.5027 10.2696 51.6536 9.87345C51.8611 9.38299 51.6159 9.98663 51.597 10.1187C51.5593 10.2696 51.5216 10.4205 51.4838 10.5903V10.6091C51.3518 10.5337 51.2197 10.4582 51.1066 10.3828C51.0688 10.3639 51.05 10.3262 51.0122 10.3073C50.8425 10.1564 50.6727 10.0244 50.5029 9.87345C50.1257 9.55276 49.7484 9.21321 49.39 8.87367C48.692 8.2323 48.0129 7.55321 47.3716 6.87412C46.6736 6.13843 46.0134 5.40275 45.372 4.61047C45.2211 4.4407 45.0891 4.27092 44.957 4.08229C44.9004 4.02569 44.8627 3.95024 44.825 3.91251C44.5043 3.49751 44.2025 3.08251 43.9006 2.64864C42.8443 1.15841 40.807 0.309547 39.1281 1.40364C37.4115 2.49774 37.0531 4.40297 37.8831 6.17616L41.3352 13.5519C42.052 15.0798 44.2402 15.6646 45.7304 15.0044C45.8436 15.0987 45.9568 15.193 46.07 15.2873C43.2027 16.7776 40.5806 18.7017 38.2604 20.9464C36.4684 22.6819 37.204 26.266 39.8072 26.7753C43.58 27.5299 46.7679 25.9831 49.7484 23.7949C50.1823 23.493 50.5972 23.1724 51.0122 22.8517C50.8802 23.6062 50.767 24.3608 50.6916 25.1342C50.5407 26.4924 51.6914 27.8317 52.8421 28.3222C54.0682 28.8503 55.7093 28.624 56.6525 27.6053C58.6332 25.436 60.5385 23.1912 62.5569 21.0596C63.0662 22.4744 63.5944 23.8892 64.1037 25.2851C64.5941 26.6244 65.5373 27.5865 67.0087 27.794C68.3291 27.9637 69.8194 27.3601 70.4796 26.134L73.7808 19.9655C73.8751 19.7769 73.9883 19.5883 74.0826 19.3996C74.2523 20.2108 74.3844 21.0408 74.5164 21.8519C74.856 23.9646 75.5728 26.0396 77.1763 27.5299C78.4401 28.6806 80.8924 29.0578 82.1185 27.5299C82.3638 27.2281 82.5901 26.9262 82.8354 26.6244C83.0617 27.4356 83.2503 28.2656 83.4201 29.0956C83.4767 29.4351 83.5522 29.7558 83.5899 30.0953C83.6088 30.2274 83.6276 30.3783 83.6465 30.5103C83.6465 30.5481 83.6653 30.6047 83.6653 30.6801C83.7408 31.3592 83.7974 32.0383 83.8351 32.7174C83.9106 34.1888 83.8917 35.6601 83.7785 37.1315C83.6465 38.867 85.2122 40.3383 86.7967 40.5647C88.4756 40.7911 90.1922 39.7536 90.626 38.0558C91.0599 36.3581 91.192 34.5849 91.0976 32.8306C91.0599 32.0194 90.9656 31.2083 90.8713 30.3972C90.7958 29.7935 90.7204 29.2088 90.626 28.6051C90.6072 28.4165 90.5695 28.2278 90.5506 28.0392C90.5506 27.9826 90.5129 27.7751 90.494 27.6242C90.4751 27.5299 90.4752 27.4356 90.4752 27.3978C90.4563 27.2092 90.4374 27.0206 90.3997 26.8319C90.362 26.4546 90.3243 26.0962 90.2865 25.719C90.2299 24.9455 90.1922 24.1721 90.2488 23.3987C90.2676 23.3044 90.2677 23.1724 90.2865 23.0403Z" fill="#5B433F"/>
<path d="M73.7626 56.3537C72.2346 54.4861 70.1219 53.1846 67.8394 52.4677C66.236 51.9584 64.2741 53.0714 63.8969 54.7125C63.8214 55.0709 63.7837 55.4293 63.8214 55.7689C63.3121 54.6748 62.2557 53.9014 60.9541 53.9014H57.936C56.2571 53.9014 54.6537 55.3727 54.7291 57.1082C54.8046 58.8437 56.1439 60.315 57.936 60.315H60.9541C62.633 60.315 64.2364 58.8437 64.161 57.1082C64.161 57.0516 64.161 57.0139 64.1421 56.9573C64.5194 57.7307 65.2173 58.3532 66.1417 58.655C66.3114 58.7116 66.4812 58.7871 66.6698 58.8248C66.085 58.655 66.6321 58.8059 66.783 58.8814C67.1603 59.07 67.4998 59.2775 67.8582 59.5039C67.896 59.5228 67.9148 59.5416 67.9526 59.5605C68.0657 59.6548 68.1789 59.7491 68.2921 59.8623C68.6317 60.183 68.9335 60.5225 69.2353 60.8809C70.2917 62.1825 72.6874 62.0694 73.7626 60.8809C75.0265 59.5039 74.8944 57.7496 73.7626 56.3537Z" fill="#5B433F"/>
<path d="M84.6086 90.9308C82.345 89.6481 80.0625 88.4408 77.629 87.5165C75.2333 86.611 72.5547 86.0451 69.9892 86.2715C67.4992 86.479 65.179 87.2524 62.7456 87.7617C62.5004 87.8183 62.2551 87.856 61.991 87.9126C61.9156 87.9315 61.859 87.9315 61.7835 87.9504C61.7458 87.9504 61.6515 87.9692 61.5194 87.9692C61.2365 87.9692 60.9535 88.007 60.6517 87.9881C60.5385 87.9881 60.1235 87.9315 60.0858 87.9315C59.916 87.8938 59.7274 87.8372 59.5576 87.7995C59.501 87.7806 59.4633 87.7806 59.4256 87.7617C59.3878 87.7429 59.3501 87.7051 59.2746 87.6486C58.803 87.3467 58.3692 86.9883 57.8976 86.6676C56.3885 85.5924 54.5964 85.2906 52.8044 85.7056C51.2764 86.064 49.9937 87.0072 48.711 87.856C46.5039 89.3274 44.2214 90.7045 41.8257 91.8552C41.5239 92.0061 41.2221 92.1381 40.9203 92.2702C40.8071 92.3268 40.7316 92.3645 40.675 92.3833C40.6184 92.4022 40.5618 92.4211 40.4675 92.4588C39.8639 92.704 39.2414 92.9304 38.6189 93.1379C37.4682 93.5152 36.2798 93.817 35.0914 94.0433C34.4689 93.7793 33.7709 93.7038 33.073 93.9302C31.4695 94.4395 30.3 96.1561 30.8282 97.8727C33.3936 105.984 39.4489 112.888 47.1264 116.529C51.0501 118.396 55.2944 119.509 59.6519 119.566C64.1226 119.641 68.4802 118.585 72.5547 116.793C76.3275 115.133 79.8172 112.643 82.6468 109.625C84.1559 108.021 85.5141 106.248 86.6459 104.362C87.8909 102.306 89.3245 99.7402 89.3057 97.269C89.2679 94.1943 87.0986 92.3645 84.6086 90.9308ZM53.974 91.7797C54.0306 91.7608 54.1437 91.8174 54.2758 91.8929C54.1248 91.8552 53.8985 91.8174 53.974 91.7797Z" fill="white"/>
<path d="M54.1248 119.226C46.5793 119.057 39.0339 118.868 31.5072 118.698C29.8284 118.66 28.225 120.207 28.3004 121.905C28.3759 123.678 29.7152 125.074 31.5072 125.112C39.0527 125.282 46.5982 125.47 54.1248 125.64C55.8037 125.678 57.4071 124.131 57.3316 122.433C57.2562 120.66 55.9357 119.264 54.1248 119.226Z" fill="#839D57"/>
<path d="M53.9733 137.147C48.0501 135.808 41.9194 135.883 36.0528 137.43C34.638 137.807 33.5816 139.297 33.6948 140.769C33.6194 141.033 33.5816 141.335 33.6005 141.636C33.6382 142.636 33.676 143.655 33.7137 144.655C33.7891 146.334 35.1285 147.937 36.9205 147.861C43.1644 147.579 49.2197 145.937 54.7467 143.014C57.1236 141.75 56.6331 137.751 53.9733 137.147Z" fill="#839D57"/>
<path d="M50.4267 124.791C46.6162 124.829 42.7869 125.263 39.033 125.942C38.7878 125.395 38.3916 124.904 37.7691 124.584C36.3921 123.848 34.0907 124.093 33.3739 125.734C32.5439 127.64 32.5061 129.451 33.4493 131.337C34.2982 133.016 35.845 134.148 37.5616 134.789C39.1084 135.355 40.8439 135.393 42.4662 135.298C44.2016 135.204 45.9371 135.072 47.6914 134.959C51.068 134.751 56.0103 135.185 57.1421 131.054C58.2174 127.093 53.709 124.753 50.4267 124.791Z" fill="white"/>
<path d="M51.126 162.556H48.1078C46.429 162.556 44.8255 164.028 44.901 165.763C44.9765 167.499 46.3158 168.97 48.1078 168.97H51.126C52.8049 168.97 54.4083 167.499 54.3329 165.763C54.2574 164.028 52.9181 162.556 51.126 162.556Z" fill="white"/>
<path d="M60.4627 358.645C61.6323 358.248 62.5943 357.23 62.5754 355.702C62.4623 340.611 61.0286 325.558 58.4066 310.712C58.7084 304.977 59.1611 299.224 59.3498 293.489C59.4818 289.981 59.5006 286.491 59.3686 282.982C59.2743 280.756 59.2743 278.361 58.8404 276.078C58.8215 275.852 58.7838 275.625 58.7084 275.399C58.5009 274.437 58.1991 273.532 57.7841 272.664C55.9354 268.834 51.6156 267.91 47.7863 267.476C44.4663 267.099 41.0331 267.363 37.7697 268.136C37.3547 266.609 35.3174 265.684 33.8837 266.137C32.0728 266.722 31.3749 268.306 31.6389 270.079C32.5067 275.946 33.3933 281.832 34.261 287.698C34.1101 288.057 34.0158 288.453 33.9969 288.868C33.4499 295.338 33.9215 301.808 34.7515 308.241C35.6003 314.881 36.6756 321.502 37.6753 328.142C38.6751 334.707 39.6749 341.29 40.6747 347.855L42.146 357.532C42.5799 360.418 42.8817 363.398 43.7872 366.171C44.787 369.171 46.4281 371.736 49.0502 373.547C51.4647 375.188 54.8036 375.848 57.5577 374.735C59.4252 373.981 60.7834 372.736 61.5379 370.849C62.1604 369.34 62.0472 367.718 61.8209 366.133C61.4813 363.606 60.9343 361.135 60.4627 358.645Z" fill="#F2B280"/>
<path d="M109.829 363.285C107.282 338.555 106.396 313.655 107.169 288.811C107.396 281.85 107.735 274.909 108.207 267.948C108.358 265.722 106.037 264.477 104.151 264.854C96.3226 266.382 88.513 267.891 80.6846 269.419C80.0432 269.551 79.4773 269.929 79.0812 270.457C77.4212 271.098 76.8175 272.607 77.0628 274.324C79.1189 289.207 81.1939 304.072 83.2501 318.955C84.2687 326.369 85.3062 333.763 86.3249 341.177C86.8342 344.912 87.3624 348.647 87.8717 352.382C88.1358 354.249 88.381 356.117 88.6451 357.984C88.8526 359.531 89.0412 361.059 89.6449 362.493C91.1351 366.02 94.5117 367.567 98.209 367.096C99.8124 366.888 101.378 366.492 102.963 366.209C103.076 366.19 103.208 366.171 103.321 366.152C103.642 366.134 103.962 366.096 104.283 366.096C104.434 366.096 104.604 366.115 104.755 366.115C104.755 366.115 104.755 366.115 104.774 366.115C105.075 366.228 105.415 366.266 105.736 366.379C107.603 367.058 110.037 365.266 109.829 363.285Z" fill="#F2B280"/>
<path d="M65.5394 124.98C65.4826 125.018 65.4257 125.037 65.3689 125.075C65.331 125.093 65.3689 125.075 65.5394 124.98Z" fill="#A51B18"/>
<path d="M115.96 255.517C113.659 233.955 110.943 212.432 107.849 190.984C106.359 180.722 104.774 170.46 102.605 160.33C101.511 155.275 100.285 150.238 98.8322 145.277C97.3986 140.354 95.5311 135.562 94.1163 130.639C93.2863 127.753 92.8902 125.602 92.8147 122.754C92.777 121.339 92.8336 119.924 92.9467 118.51C93.0788 117 93.192 116.321 93.4749 114.775C94.569 108.965 96.6063 103.381 98.6436 97.8538C99.1529 96.4579 98.2852 94.9865 97.1722 94.232C93.7956 91.9117 89.0231 93.402 86.5331 96.3259C84.2694 99.0045 83.3451 102.438 81.5719 105.418C81.1758 106.078 80.7796 106.701 80.3458 107.323C80.1383 107.644 79.9119 107.946 79.6855 108.248C79.6667 108.267 79.6667 108.267 79.6667 108.285C79.4969 108.512 79.3083 108.719 79.1385 108.946C78.101 110.191 76.9692 111.341 75.7808 112.417C75.4978 112.662 75.2149 112.907 74.9131 113.152C74.7622 113.265 74.6112 113.398 74.4792 113.511C74.4603 113.53 74.4037 113.567 74.3472 113.624C73.7435 114.077 73.121 114.51 72.4796 114.925C71.1592 115.774 69.7821 116.529 68.3673 117.17C68.2541 117.227 68.1598 117.265 68.0466 117.321C67.9712 117.359 67.8769 117.397 67.8203 117.415C67.4619 117.548 67.1223 117.698 66.7639 117.812C65.9339 118.113 65.0662 118.359 64.2362 118.66C62.0857 119.434 60.2371 120.509 58.9544 122.433C57.9168 123.98 57.483 125.866 57.2 127.677C56.8416 129.847 56.6341 132.035 56.6718 134.242C56.7284 138.411 57.6339 142.41 58.8412 146.39C59.3882 148.239 59.9541 150.069 60.3314 151.955C60.3691 152.181 60.4257 152.408 60.4634 152.634C60.4634 152.672 60.5012 152.898 60.5201 153.03C60.5389 153.219 60.5766 153.709 60.5766 153.634C60.5955 153.86 60.6144 154.087 60.6144 154.313C60.6332 154.766 60.6332 155.218 60.6144 155.671C60.6144 155.841 60.5955 156.029 60.5766 156.199C60.5578 156.256 60.52 156.577 60.5012 156.671C60.4257 157.086 60.3314 157.482 60.1994 157.878C60.1428 158.048 60.0862 158.218 60.0296 158.387C60.0107 158.444 59.8598 158.821 59.8409 158.878C59.558 159.5 59.2184 160.104 58.8412 160.67C58.7468 160.821 58.6525 160.953 58.5394 161.104C58.4828 161.179 57.9357 161.858 58.4073 161.292C58.1432 161.594 57.898 161.896 57.6339 162.198C57.068 162.82 56.4455 163.424 55.8041 163.971C55.6721 164.084 55.5212 164.216 55.3891 164.33C55.3514 164.348 55.2005 164.48 55.0873 164.575C54.993 164.631 54.8798 164.745 54.8421 164.763C54.6157 164.933 54.3894 165.084 54.163 165.254C53.4462 165.763 52.6916 166.235 51.9371 166.687C50.7864 167.385 49.6168 168.008 48.4284 168.612C47.8625 167.687 46.8816 167.046 45.7498 167.102C44.0709 167.178 42.4863 168.517 42.5429 170.309C42.5429 170.479 42.5429 170.649 42.5429 170.819C42.5052 170.97 42.392 171.347 42.3731 171.422C42.3731 171.46 42.3543 171.498 42.3354 171.535C42.3543 171.498 42.392 171.441 42.4109 171.366C42.3732 171.422 42.3543 171.479 42.3166 171.535C42.26 171.668 42.2034 171.8 42.3166 171.554C42.2977 171.611 42.26 171.649 42.2411 171.705C42.0902 172.007 41.9204 172.309 41.7318 172.611C41.0338 173.705 40.2038 174.723 39.4681 175.78C37.6195 178.458 36.9404 181.514 37.0536 184.759C37.1102 186.306 37.28 187.834 37.3365 189.362C37.3554 190.06 37.3743 190.776 37.3177 191.474C37.2988 191.644 37.2234 192.172 37.2799 191.965C37.2045 192.342 37.129 192.738 37.0158 193.116C36.9404 193.342 36.5254 194.21 36.9027 193.493C36.7895 193.7 36.6952 193.908 36.6009 194.096C36.4688 194.323 36.3368 194.549 36.1859 194.757C36.2047 194.719 35.9784 195.059 35.9406 195.096C35.6011 195.492 35.2238 195.889 34.8277 196.247C34.6202 196.436 34.4315 196.605 34.224 196.775C34.1297 196.851 34.0354 196.926 33.9599 197.001C33.9411 197.02 33.9222 197.02 33.9222 197.039C30.0363 199.831 25.1694 202.283 23.1133 206.867C21.5665 210.3 21.5853 214.111 21.3967 217.789C21.2081 221.392 21.0383 225.014 20.9063 228.617C20.6422 235.898 20.4912 243.199 20.4724 250.48C20.4535 254.008 19.8687 258.346 22.5474 261.119C23.7735 262.383 25.3958 263.043 26.9992 263.666C28.4706 264.232 29.9608 264.76 31.4699 265.25C43.6182 269.231 56.5398 271.004 69.3105 270.608C82.1378 270.193 94.9652 267.627 106.887 262.836C108.509 262.176 110.113 261.496 111.697 260.78C112.508 260.402 113.037 259.572 113.206 258.667C114.659 258.384 116.13 257.139 115.96 255.517Z" fill="#E26E6B"/>
<path d="M47.2009 115.152C46.1256 114.944 45.0882 114.661 44.0506 114.284C43.7866 114.19 43.5413 114.095 43.2961 114.001C43.2772 114.001 43.2584 113.982 43.2395 113.982C43.2206 113.982 43.2206 113.963 43.1829 113.963C42.7302 113.737 42.2775 113.548 41.8436 113.303C40.8816 112.794 39.9572 112.209 39.0706 111.587C38.9952 111.53 38.7122 111.304 38.6556 111.266C38.5424 111.172 38.4293 111.096 38.3349 111.002C37.9199 110.643 37.5049 110.285 37.1277 109.908C36.3731 109.191 35.6752 108.417 35.0149 107.606C34.9772 107.569 34.9583 107.531 34.9395 107.512C34.9206 107.474 34.9018 107.437 34.864 107.399C34.7131 107.172 34.5433 106.965 34.3924 106.739C34.1095 106.324 33.8454 105.909 33.6001 105.475C33.3549 105.041 33.1097 104.607 32.8833 104.173C32.7513 103.928 32.6381 103.683 32.5249 103.437C32.4872 103.381 32.3174 102.928 32.3174 102.947C31.9779 102.004 31.6572 101.079 31.4308 100.099C31.0347 98.4763 29.0917 97.3445 27.4883 97.8538C26.2622 98.2499 25.4322 99.212 25.2058 100.382C24.5644 101.155 24.3003 102.192 24.5456 103.268C25.2058 106.135 25.8849 109.002 26.5451 111.851C27.1865 114.586 27.7901 117.472 30.1292 119.321C32.2985 121.037 34.9583 121.679 37.6936 121.66C38.9952 121.641 40.2779 121.471 41.5606 121.339C42.2775 121.264 42.9943 121.207 43.73 121.207C44.0884 121.207 44.4468 121.207 44.8052 121.245C44.9561 121.264 45.0127 121.264 44.9561 121.245C45.0316 121.264 45.107 121.264 45.1825 121.283C45.2957 121.301 45.4277 121.339 45.5409 121.358C47.182 121.679 49.0873 120.886 49.4834 119.113C49.823 117.472 48.9552 115.548 47.2009 115.152Z" fill="#A51B18"/>
<path d="M32.3927 133.997C30.8648 133.638 28.7332 134.468 28.4502 136.242C28.1296 138.241 27.8089 140.241 27.5071 142.24C27.243 143.881 27.922 145.768 29.7518 146.183C31.2798 146.541 33.4114 145.711 33.6943 143.938C34.015 141.938 34.3357 139.939 34.6375 137.939C34.9016 136.298 34.2037 134.412 32.3927 133.997Z" fill="#A51B18"/>
<path d="M75.7995 58.8059C73.8754 55.882 70.9704 53.7882 67.5561 52.977C66.9713 52.845 66.5563 53.1657 66.3676 53.5807C65.6508 53.8259 64.934 54.0711 64.236 54.3163C64.2172 54.3163 64.1795 54.2975 64.1606 54.2975C64.0286 47.2802 64.0851 40.2629 64.3492 33.2456C64.4058 31.9063 62.3308 31.9063 62.2742 33.2456C62.0479 39.4329 61.9724 45.6202 62.0478 51.8075C58.4637 50.9963 54.6533 55.2595 52.616 57.6175C52.0878 58.24 52.3142 59.07 53.0687 59.353C56.8415 60.7111 61.746 60.4093 64.1417 56.9573C67.2542 59.7868 71.1967 62.1825 75.4411 60.2207C75.9127 59.9943 76.0825 59.2398 75.7995 58.8059ZM55.2192 57.825C56.1058 56.9007 57.049 56.0329 58.0487 55.2218C59.1806 54.3352 60.6897 53.4486 62.0667 54.0523C62.0856 54.637 62.0856 55.2218 62.1044 55.8066C62.1044 55.9009 62.1233 55.9952 62.161 56.0895C60.501 58.0514 57.7469 58.3532 55.2192 57.825ZM66.0281 55.9009C66.5374 55.7311 67.0279 55.5613 67.5372 55.3727C67.6504 55.335 67.7636 55.2784 67.839 55.2029C69.9518 55.8632 71.8192 57.1082 73.234 58.7871C70.5931 59.3718 68.0465 57.7118 66.0281 55.9009Z" fill="#010202"/>
<path d="M52.6723 38.9991C52.5025 38.8293 52.2951 38.7161 52.0875 38.6407C52.0498 38.5652 51.9932 38.4709 51.9177 38.4143C51.5405 38.0371 50.8236 37.9993 50.4464 38.4143C49.8805 39.0557 49.673 39.9234 49.9748 40.7346C50.1446 41.1684 50.4275 41.5834 50.8236 41.8287C51.333 42.1305 52.031 41.9418 52.4648 41.5834C53.2571 40.9421 53.4457 39.7159 52.6723 38.9991Z" fill="#010202"/>
<path d="M77.7989 39.0555C77.7235 38.9801 77.648 38.9424 77.5726 38.8858C77.516 38.8292 77.4594 38.7537 77.3839 38.716C77.0444 38.3953 76.5917 38.3387 76.1389 38.5651C75.3089 38.9612 75.0637 40.0365 75.4032 40.8287C75.6485 41.4135 76.271 41.8662 76.9312 41.6399C77.4971 41.4512 77.931 41.074 78.1385 40.5269C78.3082 40.0176 78.1951 39.3951 77.7989 39.0555Z" fill="#010202"/>
<path d="M64.4059 63.4464C64.2739 65.2573 61.9159 65.0687 61.6141 63.4464C61.3689 62.1448 59.3693 62.6918 59.6145 63.9934C59.9352 65.6912 61.5575 66.9928 63.293 66.8607C65.1039 66.7098 66.3678 65.1818 66.4998 63.4464C66.5753 62.1071 64.5002 62.1071 64.4059 63.4464Z" fill="#010202"/>
<path d="M135.145 232.352C134.899 229.805 134.315 227.297 133.353 224.939C132.296 222.354 130.863 219.977 129.07 217.827C129.523 217.28 129.825 216.582 130.033 215.922C130.58 214.243 130.448 212.451 129.806 210.847C129.9 210.678 129.957 210.508 129.938 210.319C127.731 193.21 125.543 176.119 123.317 159.01C121.317 143.561 119.035 127.809 111.81 113.812C108.264 106.927 103.529 100.589 97.5303 95.6467C97.4926 95.5335 97.436 95.4203 97.3794 95.326C96.7569 94.2697 95.2855 94.0999 94.2103 93.7981L89.966 92.6285C89.7962 92.5908 89.6453 92.5719 89.5133 92.5908C88.7399 91.9683 87.608 91.591 86.6648 91.2326C84.3635 90.346 82.0055 89.5726 79.6287 88.8935C78.063 87.5164 76.3464 86.2714 74.4977 85.498C74.3846 85.4603 74.2902 85.4226 74.1771 85.3848C74.1959 85.2905 74.2148 85.1773 74.1959 85.0453C73.8564 81.2537 73.5168 77.4432 73.1773 73.6516C76.9312 72.3878 80.3267 70.1241 82.7789 66.9739C86.0612 62.7484 87.2874 57.5043 87.3628 52.2413C88.2306 52.0338 89.1171 51.3547 89.7585 50.7888C91.1356 49.6004 92.1919 48.0724 92.8899 46.3936C93.5689 44.7336 93.984 42.7529 93.6633 40.9608C93.3615 39.2631 91.909 38.0558 90.2678 38.4708C91.1356 33.6417 90.6073 28.4919 89.966 23.6251C93.0219 22.7762 94.399 18.8148 92.7578 16.0041C90.9469 12.8916 87.4571 12.2314 84.2691 13.0048C84.986 10.7223 85.0992 8.13795 82.8167 6.81749C81.3076 5.94976 79.4778 6.27044 77.9875 6.98726C77.0255 7.43999 76.1955 8.11909 75.3278 8.72273C75.3278 8.04363 75.1957 7.34568 74.9128 6.68545C74.1205 4.8368 72.4416 3.74271 70.4609 3.61066C66.5184 3.3277 63.9718 6.28931 62.1986 9.43955C61.8402 8.25113 61.3686 7.08158 60.8027 5.96862C59.9161 4.25203 58.7654 2.12043 56.4829 2.64861C54.7097 3.06361 53.1441 4.59158 52.0877 6.00635C51.5406 6.74204 51.1067 7.55317 50.7861 8.40204C49.6731 6.57226 48.3527 4.87453 46.8436 3.34657C45.4288 1.93179 41.5051 -2.10504 40.0904 1.38474C39.0717 3.87475 39.3547 7.13818 40.0715 9.66591C40.7506 12.0427 42.0145 14.2309 43.7311 16.0041C41.6749 17.2491 39.8829 18.9091 38.4681 20.8898C36.9967 22.9648 35.8649 26.3037 38.3172 28.1523C39.7885 29.2653 41.8258 29.2087 43.6933 28.8126C43.3915 32.2269 43.184 35.6601 43.1274 39.1122C42.5804 38.7349 42.0333 38.3576 41.4674 37.9803C40.5431 37.3767 39.5056 36.6976 38.3926 37.2824C36.4308 38.3199 36.544 41.1306 36.8647 42.9792C37.506 46.6199 39.2415 52.0904 43.7311 51.9961C44.5422 58.2211 46.6926 64.1066 51.352 68.5396C52.1254 69.2752 52.9554 69.9732 53.842 70.5957C53.7477 70.7466 53.6722 70.9352 53.6911 71.1805C53.8232 75.4248 53.7854 79.6691 53.559 83.9135C52.9931 83.8569 52.4461 83.9135 51.9179 84.1964C51.1445 84.6114 50.5031 85.3094 49.8806 85.913C49.7108 86.0828 49.5411 86.2526 49.3713 86.4224C49.2204 86.4224 49.0506 86.4601 48.8997 86.5355C44.712 88.5351 40.5054 90.5158 36.3176 92.5153C35.3178 92.9869 34.2992 93.4774 33.2994 93.949C32.3751 94.3828 31.3187 94.7601 30.5076 95.3826C30.4887 95.4015 30.451 95.4203 30.4321 95.4392C29.0928 95.8731 27.7724 96.4201 26.5085 97.0615C25.4144 97.6274 23.9053 98.2876 23.2073 99.3629C23.1696 99.4194 23.1319 99.4949 23.0942 99.5515C22.8678 99.4949 22.6226 99.5326 22.3585 99.7024C5.92818 111.039 3.53249 132.77 1.79702 151.012C0.778383 161.632 0.401109 172.403 1.89134 183.005C3.09862 191.625 6.62614 201.321 15.5487 204.528C19.6421 205.999 24.4523 205.603 28.2817 203.491L30.6585 219.072C30.7528 219.676 31.4319 219.864 31.9412 219.789C40.7695 218.449 49.5788 217.129 58.407 215.79C62.7268 215.129 67.0654 214.394 71.4418 214.45C75.7428 214.507 79.9682 215.488 84.2314 215.997C89.2114 216.582 94.2103 216.356 99.2092 216.11C99.7751 216.073 100.228 215.658 100.247 215.073C100.398 209.942 100.53 204.792 100.681 199.661C100.756 197.039 100.831 194.398 100.907 191.776C100.945 190.531 100.982 189.267 101.001 188.022C101.039 186.966 101.284 185.589 100.794 184.589C99.9638 182.967 97.6247 183.155 96.1156 182.684C94.3424 182.118 92.7013 181.137 91.3242 179.911C88.3249 177.289 86.3442 173.724 85.2878 169.913C83.8542 164.744 83.8919 159.331 83.9296 154.03C83.9296 153.464 83.458 153.011 82.8921 152.992C76.0634 152.823 69.2348 152.936 62.425 153.332C61.7647 152.974 61.0857 152.691 60.3688 152.502C61.0102 151.974 61.6138 151.37 62.142 150.729C62.4816 150.333 62.5947 149.654 62.142 149.257C60.7461 148.088 59.1238 147.409 57.3884 147.22C57.7468 146.975 58.0863 146.711 58.3127 146.409C58.9164 145.598 59.237 144.391 58.6711 143.466C58.4636 143.127 58.1995 142.919 57.9166 142.768C58.3127 137.09 58.6334 131.431 58.8409 125.753C59.7275 125.64 60.5386 125.055 60.8027 124.131C61.1423 122.924 60.4443 121.603 59.4257 120.981C58.1052 120.17 56.5018 120.434 55.0493 120.528C53.295 120.641 51.5218 120.641 49.7486 120.603C46.2022 120.528 42.6747 120.264 39.1472 120.264C37.3928 120.264 35.6197 120.339 33.8653 120.547C33.1485 120.622 32.4317 120.717 31.7337 120.905C31.6017 120.811 31.4319 120.754 31.2244 120.735C31.4885 120.754 31.1678 120.434 31.0735 120.245C30.9414 120 30.8094 119.736 30.6774 119.49C30.3944 118.943 30.1114 118.377 29.8474 117.812C29.3192 116.717 28.8476 115.605 28.3949 114.473C27.5083 112.209 26.7537 109.87 26.1689 107.512C25.886 106.361 25.6219 105.192 25.3955 104.022C25.2823 103.4 25.1692 102.796 25.0748 102.174C25.0183 101.759 24.7919 101.042 24.9051 100.627C25.0748 100.099 25.8294 99.7967 26.2632 99.5326C26.7914 99.212 27.3385 98.929 27.8855 98.646C28.4703 98.3631 29.0551 98.099 29.6587 97.8726C29.8096 98.646 30.168 99.4572 30.4699 100.193C33.1485 106.852 37.0533 113.567 43.599 117.019C47.1642 118.887 51.1256 119.679 55.087 120.132C57.1054 120.358 59.1427 120.509 61.18 120.641C62.1986 120.698 63.1984 120.735 64.217 120.698C64.6509 121.056 65.3677 121 65.745 120.566C66.4052 120.471 67.0466 120.339 67.688 120.151C71.3664 119.057 74.6864 116.642 77.5914 114.19C80.4021 111.813 82.8921 109.04 85.0049 106.022C86.1933 104.324 87.2496 102.532 88.1739 100.683C88.6078 99.8156 89.004 98.9101 89.3812 98.0047C89.7962 97.0049 90.3244 95.9485 90.4565 94.8733C91.2865 95.0997 92.1353 95.3449 92.9653 95.5713C93.5501 95.741 94.1349 95.8919 94.7385 96.0617C95.0781 96.156 95.3044 96.1749 95.4365 96.2503C95.4553 96.3824 95.4931 96.5144 95.5874 96.6276C95.5874 96.6842 95.5874 96.7408 95.5874 96.8163C95.4742 99.2308 95.0026 101.645 94.5499 104.022C93.6633 108.625 92.5503 113.171 91.9844 117.83C91.4185 122.471 91.494 127.243 92.9276 131.733C94.3424 136.166 96.7569 140.203 98.3226 144.598C101.661 153.841 102.869 163.782 104.265 173.46C105.755 183.721 107.019 194.021 108.169 204.321C109.452 215.846 110.603 227.372 111.735 238.898C111.754 239.067 111.791 239.2 111.867 239.332C111.867 239.388 111.867 239.445 111.867 239.501C112.301 245.387 112.791 251.272 113.168 257.158C113.206 257.648 113.263 258.12 112.999 258.573C112.716 259.044 112.15 259.365 111.735 259.686C110.735 260.383 109.697 261.025 108.622 261.61C106.566 262.704 104.378 263.553 102.133 264.213C97.5492 265.571 92.7956 266.194 88.0608 266.684C82.7601 267.25 77.4782 267.835 72.1775 268.401C66.5562 268.985 60.897 269.4 55.2379 269.023C49.5788 268.646 43.9951 267.552 38.5058 266.156C35.8272 265.477 33.1485 264.722 30.4887 263.93C29.2249 263.553 27.9421 263.175 26.6783 262.779C25.5087 262.421 24.0939 262.194 23.0376 261.572C21.9623 260.949 22.1698 259.667 22.1887 258.573C22.2076 257.063 22.2264 255.573 22.2453 254.064C22.283 251.178 22.3207 248.311 22.3773 245.425C22.6037 232.409 22.981 219.393 23.528 206.377C23.5846 205.037 21.5096 205.037 21.453 206.377C20.9437 218.638 20.5853 230.9 20.3401 243.161C20.2835 246.16 20.2269 249.178 20.1891 252.178C20.1703 253.555 20.1514 254.932 20.1325 256.309C20.1137 257.761 19.9439 259.327 20.1891 260.78C20.6419 263.402 23.2828 263.892 25.4333 264.552C27.0367 265.043 28.6401 265.533 30.2435 266.005C31.4508 281.417 32.8844 296.809 34.5444 312.164C36.2233 327.727 38.1285 343.271 40.2601 358.777C40.694 362.002 41.0524 365.36 42.6181 368.265C42.9954 368.963 43.4292 369.586 43.9386 370.151C37.6381 375.528 31.828 381.47 26.6028 387.902C26.1123 388.506 26.2633 389.374 27.0555 389.638C30.5453 390.788 34.2615 390.373 37.7513 389.487C40.9581 388.676 44.0895 387.506 47.0699 386.11C53.0686 383.299 58.5579 379.395 63.1795 374.641C63.67 374.132 63.5002 373.509 63.0852 373.151C63.7077 372.396 64.0284 371.453 64.1227 370.434C64.2736 368.699 63.9152 366.888 63.7266 365.153C63.5191 363.172 63.3304 361.191 63.1418 359.192C62.7834 355.343 62.4438 351.495 62.142 347.647C61.5195 339.743 61.0479 331.839 60.6895 323.935C59.9916 308.241 59.8406 292.508 60.2179 276.814C60.2556 274.946 60.3122 273.079 60.3688 271.211C63.1984 271.192 66.028 271.041 68.8575 270.796C71.1777 270.589 73.498 270.344 75.7994 270.098C77.7046 282.624 79.4967 295.149 81.1378 307.713C82.7789 320.181 84.3069 332.669 85.7028 345.176C86.4951 352.288 87.2496 359.418 87.9665 366.548C88.023 367.114 88.3815 367.548 88.9662 367.586C93.8519 374.603 100.077 380.64 107.264 385.261C109.075 386.431 110.942 387.487 112.867 388.468C114.47 389.279 116.356 390.298 118.205 389.807C120.28 389.26 120.563 387.11 119.903 385.337C119.092 383.148 118.073 381.036 117.035 378.942C114.715 374.264 111.98 369.793 108.905 365.568C109.32 365.209 109.66 364.794 109.943 364.266C110.735 362.776 110.697 361.059 110.66 359.418C110.603 357.343 110.546 355.268 110.509 353.193C110.414 349.118 110.301 345.025 110.207 340.95C109.792 324.501 109.377 308.033 108.962 291.584C108.735 282.435 108.49 273.286 108.264 264.118C108.358 264.062 108.471 264.024 108.566 263.968C109.848 263.345 111.074 262.647 112.244 261.855C113.225 261.195 114.338 260.497 114.885 259.421C115.564 258.101 115.149 256.347 115.036 254.951C114.923 253.328 114.791 251.687 114.677 250.065C114.413 246.556 114.168 243.048 113.904 239.539C113.885 239.369 113.847 239.218 113.772 239.086C113.772 239.03 113.772 238.992 113.772 238.935C113.3 234.257 112.848 229.579 112.376 224.901C112.47 224.863 112.546 224.825 112.64 224.769C113.017 224.524 113.395 224.259 113.772 224.014C114.508 224.769 114.753 225.995 115.036 226.938C115.507 228.466 115.941 230.013 116.319 231.56C117.092 234.691 117.639 237.879 117.979 241.086C118.148 242.67 118.262 244.274 118.318 245.877C118.375 247.103 118.356 248.613 119.884 248.895C122.449 249.367 122.883 246.028 123.015 243.746C123.053 244.198 123.091 244.651 123.11 245.085C123.147 245.651 123.562 246.123 124.147 246.123C125.524 246.141 126.335 245.236 126.826 244.104C126.826 244.123 126.826 244.142 126.826 244.161C126.995 245.142 127.75 246.028 128.844 245.764C129.9 245.5 130.353 244.349 130.598 243.406C130.806 242.576 130.995 241.727 131.145 240.897C131.447 241.256 131.843 241.52 132.391 241.576C133.503 241.69 134.277 240.803 134.635 239.841C135.05 238.766 135.088 237.483 135.163 236.351C135.277 234.955 135.258 233.654 135.145 232.352ZM39.1472 43.6017C38.9963 42.9038 38.8265 42.1869 38.7888 41.4701C38.751 40.9797 38.6945 39.4706 39.2981 39.2065C39.7508 38.999 40.9769 40.0931 41.3165 40.3383C41.939 40.7533 42.5426 41.1872 43.1463 41.6399C43.1651 44.394 43.2972 47.1481 43.5424 49.8833C40.7129 49.5815 39.6942 46.0163 39.1472 43.6017ZM63.9718 157.897C63.5002 157.463 62.9909 157.142 62.4438 156.878C62.9154 156.426 63.3304 155.916 63.67 155.331C69.7252 155.011 75.7805 154.916 81.8357 155.03C81.798 163.443 82.1564 172.384 87.7401 179.175C90.0981 182.042 93.3426 184.325 97.021 185.042C97.3983 185.117 97.7944 185.155 98.1717 185.23C98.6622 185.325 98.8885 185.344 99.0017 185.834C99.1149 186.381 98.964 187.079 98.964 187.626C98.9451 188.381 98.9263 189.135 98.9074 189.89C98.832 192.455 98.7565 195.021 98.6999 197.586C98.549 203.076 98.3981 208.584 98.2472 214.073C94.1349 214.281 90.0226 214.431 85.9292 214.092C81.5905 213.715 77.3273 212.658 72.9698 212.432C68.6123 212.187 64.2548 212.828 59.9538 213.488C55.5209 214.149 51.069 214.828 46.6361 215.507C41.9579 216.205 37.2797 216.921 32.6015 217.619C31.8281 212.489 31.0358 207.358 30.2624 202.227C33.8276 199.454 36.0346 195.266 36.3553 190.758C36.3553 190.663 36.3553 190.55 36.3176 190.456C37.8833 189.494 38.1097 187.419 37.3551 185.834C36.8647 184.778 35.9781 184.099 34.9783 183.589C37.1665 181.08 39.1283 178.364 40.7694 175.478C41.6372 173.95 42.4295 172.384 43.1274 170.781C43.2217 170.573 43.316 170.328 43.3915 170.083C46.504 169.875 49.6165 169.725 52.729 169.442C53.8986 169.328 54.9549 168.989 55.4454 167.819C56.0113 166.442 56.2754 164.858 56.6527 163.405C56.6527 163.367 56.6715 163.349 56.6715 163.311C59.1615 162.254 61.5384 160.991 63.802 159.519C64.2925 159.18 64.4811 158.369 63.9718 157.897ZM34.6199 189.55C30.8094 188.664 27.0555 187.532 23.396 186.136C21.4153 185.381 19.4535 184.57 17.5482 183.608C15.9637 182.816 14.2471 181.797 13.4737 180.118C12.8323 178.722 12.87 176.798 14.3414 175.95C15.7562 175.138 17.6048 175.572 18.9253 176.346C19.2648 176.534 19.5855 176.761 19.8873 176.987C20.0194 177.176 20.208 177.345 20.4344 177.421C21.3776 178.213 22.2264 179.1 23.1507 179.911C24.5844 181.194 26.1689 182.307 27.9044 183.155C29.7342 184.061 31.7149 184.457 33.5824 185.23C34.3558 185.551 35.1858 186.023 35.5253 186.853C35.7894 187.494 35.8083 188.362 35.1292 188.739C34.7708 188.947 34.6199 189.248 34.6199 189.55ZM44.2027 167.951C44.429 167.517 44.712 167.121 45.0704 166.838C45.674 166.348 46.5417 166.272 47.2774 166.122C48.032 165.971 48.8054 165.82 49.5599 165.65C51.1445 165.273 52.7291 164.801 54.257 164.254C54.0495 165.046 53.8609 165.839 53.6156 166.631C53.4647 167.14 53.3704 167.291 52.8234 167.367C52.2009 167.461 51.5406 167.461 50.9181 167.499C48.6733 167.649 46.4286 167.8 44.2027 167.951ZM59.8406 150.144C58.9163 151.068 57.8788 151.823 56.7093 152.426C56.6338 152.464 56.5772 152.521 56.5018 152.577C53.1818 152.464 49.8806 152.634 46.5983 153.087C45.2779 153.275 45.8438 155.275 47.1454 155.086C50.4088 154.634 53.71 154.52 56.9923 154.671C57.3695 154.69 57.6336 154.539 57.8034 154.313C59.0295 154.256 60.1991 154.501 61.2743 155.067L61.2931 155.086C60.8027 155.633 60.1991 156.048 59.52 156.312C55.5397 156.859 51.6161 157.671 47.7679 158.802C46.4851 159.18 47.0322 161.179 48.3149 160.802C51.7293 159.802 55.219 159.01 58.7465 158.501C58.9163 158.576 59.1238 158.595 59.3691 158.538C60.0293 158.387 60.6895 158.406 61.2931 158.614C58.7277 160.161 56.0113 161.462 53.1629 162.424C51.5972 162.971 49.9938 163.424 48.3715 163.782C46.8436 164.122 45.1081 164.179 43.8442 165.178C42.6181 166.14 42.1654 167.668 41.5994 169.064C40.9769 170.611 40.2413 172.101 39.449 173.573C37.7701 176.685 35.7328 179.59 33.4126 182.25C33.224 182.458 33.1485 182.684 33.1485 182.891C32.9221 182.816 32.6958 182.759 32.4883 182.684C30.2624 182.024 28.1874 181.099 26.2821 179.76C24.7919 178.704 23.5469 177.364 22.1887 176.176C25.0371 171.139 27.3762 165.801 29.0928 160.293C30.0171 157.369 30.7528 154.388 31.3376 151.389C31.6583 149.672 31.828 147.39 32.9599 145.937C33.0353 146.956 33.1296 147.956 33.2051 148.974C32.0733 149.484 32.6015 151.389 33.8465 150.936C38.7888 149.163 43.7877 147.635 48.8809 146.371C51.1445 145.805 53.4459 145.164 55.7472 144.768C55.8038 145.164 56.0679 145.39 56.4075 145.485C56.2 145.654 55.9736 145.805 55.7661 145.956C55.1625 146.409 54.6531 146.862 54.3136 147.503C51.1822 147.861 48.0697 148.201 44.9383 148.559C43.6179 148.71 43.6179 150.785 44.9383 150.634C48.3149 150.257 51.6915 149.88 55.0681 149.503C55.2568 149.484 55.4077 149.427 55.5397 149.333C56.9922 149.088 58.5391 149.371 59.8406 150.144ZM34.3935 135.676C34.2992 135.676 34.2237 135.694 34.1483 135.713C34.0162 134.11 33.8842 132.506 33.7522 130.922C33.6767 129.922 33.5824 128.922 33.5069 127.923C33.4692 127.545 33.2806 126.866 33.3937 126.508C33.4126 126.47 33.4126 126.432 33.4315 126.395C33.5446 126.338 33.6578 126.281 33.7333 126.206C33.8087 126.206 33.9031 126.206 34.0351 126.206C37.9965 126.017 41.9767 126.055 45.9381 125.998C49.5411 125.942 53.1629 125.885 56.7659 125.848C56.6527 128.941 56.5018 132.054 56.3131 135.147C56.2943 135.147 56.2943 135.147 56.2754 135.147C48.9752 134.921 41.6749 135.11 34.3935 135.676ZM56.1811 137.185C56.0679 139.014 55.9547 140.844 55.8227 142.655C55.7095 142.674 55.5963 142.693 55.502 142.712C54.0306 143.013 52.5593 143.334 51.0879 143.674C45.7117 144.919 40.411 146.447 35.1858 148.239L34.3181 137.751C34.3369 137.751 34.3747 137.751 34.3935 137.751C41.6372 137.185 48.9186 136.996 56.1811 137.185ZM32.1676 122.942C33.3937 122.584 34.7331 122.527 36.0158 122.452C38.8076 122.282 41.6183 122.377 44.4101 122.49C47.2208 122.603 50.0127 122.754 52.8234 122.697C54.125 122.678 55.4265 122.527 56.7281 122.49C57.3318 122.471 58.0675 122.452 58.5202 122.924C58.822 123.225 58.9541 123.867 58.3127 123.678C58.0298 123.603 57.7845 123.622 57.577 123.735C50.8992 123.829 44.2215 123.923 37.5438 124.037C36.0912 124.055 34.4312 123.867 33.0165 124.206C32.7335 124.263 32.5072 124.376 32.3185 124.489C31.7337 124.565 31.149 124.565 30.5453 124.508C30.5076 123.735 31.5074 123.131 32.1676 122.942ZM31.4319 128.073C31.6771 131.148 31.9412 134.223 32.1865 137.317C32.3562 139.335 32.526 141.335 32.6769 143.353C30.6396 144.673 29.9605 147.05 29.5267 149.314C29.0174 152.011 28.4515 154.709 27.7158 157.35C29.6021 147.692 30.8471 137.901 31.4319 128.073ZM26.8292 116.152C27.3762 117.491 27.9799 118.811 28.6401 120.113C28.9608 120.735 29.2437 121.452 29.6776 121.98C28.7533 122.829 28.244 124.169 28.6401 125.414C28.791 125.885 29.0928 126.187 29.489 126.395C29.489 126.432 29.4701 126.489 29.4701 126.527C28.6778 141.146 26.4519 155.671 22.8489 169.857C22.7923 170.045 22.8112 170.215 22.8489 170.366C22.1132 171.894 21.321 173.403 20.491 174.893C18.9253 173.856 17.1143 173.271 15.228 173.535C13.3227 173.799 11.6627 175.063 11.1723 176.968C10.927 177.911 10.9082 178.76 11.078 179.571C10.1348 179.156 9.30479 178.572 8.55024 177.798C7.62592 176.836 6.15454 178.307 7.07886 179.27C7.90887 180.137 8.87091 180.835 9.92728 181.345C9.7575 181.514 9.58774 181.684 9.43683 181.892C8.62569 182.929 10.0782 184.419 10.9082 183.363C11.3232 182.835 11.7948 182.458 12.3796 182.231C13.9264 184.118 16.4541 185.438 18.5669 186.381C23.5846 188.607 28.8099 190.361 34.1671 191.588C33.6767 195.228 31.696 198.661 28.7155 200.812C25.3955 203.226 20.9814 203.943 17.0389 202.811C8.4182 200.321 5.15475 190.739 4.00407 182.778C2.57043 172.95 2.89113 162.915 3.74 153.049C4.57 143.504 5.51317 133.733 8.22954 124.508C10.8139 115.774 15.4166 107.286 22.9244 101.872C22.981 102.287 23.0753 102.702 23.1319 103.098C23.3771 104.607 23.6789 106.116 24.0373 107.606C24.7353 110.492 25.6785 113.36 26.8292 116.152ZM73.4037 87.2712C74.6675 87.6674 75.8937 88.6294 76.95 89.4217C77.4027 89.7424 77.8178 90.1008 78.2516 90.4592C78.3082 90.5346 78.3837 90.6101 78.478 90.6667C74.46 90.4781 70.4987 89.8556 66.6127 88.8369C67.273 88.6294 67.952 88.403 68.6123 88.1955C70.0648 87.7239 71.8757 86.8185 73.4037 87.2712ZM55.8038 71.803C59.3313 73.8591 63.4059 74.9532 67.5182 74.7269C68.7443 74.6514 69.9705 74.4816 71.1589 74.1987L72.1209 85.0264C72.1209 85.0642 72.1209 85.083 72.1398 85.1208C71.4795 85.1585 70.8193 85.3094 70.1591 85.5169C68.4991 86.0262 66.8391 86.5733 65.198 87.1014C64.7452 87.2524 64.2925 87.3844 63.8586 87.5353H63.8397C61.8025 86.7808 59.7652 86.0262 57.7468 85.2717C56.9923 84.9887 56.2377 84.7057 55.4832 84.4228C55.5775 84.2719 55.6529 84.0833 55.6718 83.8758C55.8793 79.8389 55.9359 75.821 55.8038 71.803ZM90.8526 40.4326C91.8147 39.9988 91.7014 42.602 91.6637 43.017C91.5694 44.0356 91.2676 45.0542 90.8337 45.9786C90.3999 46.9217 89.8151 47.7895 89.1171 48.544C88.7964 48.8836 88.4569 49.2043 88.0985 49.5061C87.8721 49.6758 87.6458 49.8456 87.4005 49.9965C87.3817 50.0154 87.3628 50.0154 87.3439 50.0343C87.2874 48.8647 87.193 47.714 87.0421 46.5633C87.0987 46.5067 87.1553 46.4501 87.2119 46.3747C88.4758 44.4883 89.3246 42.4888 89.8717 40.3949C90.1357 40.5647 90.4753 40.6024 90.8526 40.4326ZM39.996 26.6998C37.6758 25.7567 39.7131 22.6064 40.6563 21.3991C42.1088 19.5694 43.9386 18.1357 46.0136 17.0982C46.7681 16.7209 46.6172 15.8532 46.1079 15.4382C46.0513 15.3628 45.9947 15.2873 45.9192 15.2307C42.637 12.2691 40.9203 7.6475 41.7315 3.27112C41.7881 3.00702 41.8069 2.70521 41.9201 2.44111C42.0522 2.10157 41.9579 2.0827 42.354 2.23361C42.8256 2.40338 43.316 2.95043 43.6933 3.27112C44.5799 4.02566 45.4288 4.8368 46.2211 5.70453C47.8622 7.51545 49.2204 9.59046 50.2768 11.7975C50.7672 12.8161 52.1254 12.1936 52.2008 11.2693C52.4461 8.70386 54.1627 5.6668 56.7093 4.74248C57.5959 4.4218 57.9354 5.19521 58.3316 5.85544C58.7277 6.51567 59.0861 7.19477 59.4068 7.91159C60.1047 9.43955 60.5386 11.0807 60.8027 12.7407C60.9348 13.5896 62.3306 13.7782 62.7079 12.9859C64.0472 10.0809 65.6318 6.5534 69.065 5.77999C70.3855 5.47817 71.8757 5.74226 72.668 6.91181C73.3471 7.87386 73.5168 9.26978 72.6302 10.1564C71.9134 10.8732 72.6302 12.1936 73.6489 11.8918C75.0071 11.4768 76.12 10.6846 77.2519 9.87341C78.3082 9.11887 79.591 8.23227 80.9869 8.38318C83.8919 8.70387 82.3073 12.7218 81.5339 14.2309C81.0623 15.1741 82.0055 16.1173 82.9487 15.6457C85.4387 14.4384 88.8153 14.1932 90.664 16.6266C91.3808 17.5509 91.7015 18.7959 91.2299 19.9089C90.7583 21.0219 89.7396 21.7953 88.5324 21.7387C87.476 21.701 87.2496 23.0026 87.8721 23.5685C88.721 29.9444 89.4756 36.8674 86.7969 42.8095C86.7592 35.5658 86.099 28.3598 84.8162 21.2294C84.8162 21.1916 84.7973 21.1728 84.7973 21.135C84.703 20.2107 83.3826 19.6448 82.911 20.6635C82.1942 22.1914 81.9867 23.8326 81.4208 25.4171C81.0246 26.5301 79.9494 28.1146 78.5346 27.9071C77.1198 27.6996 76.8369 25.2096 76.5916 24.1344C76.1766 22.2103 76.0257 20.2673 76.0823 18.2866C76.12 17.0416 74.46 16.985 74.045 18.0037C73.3471 19.7203 72.5737 21.3991 71.6871 23.0214C70.9514 24.3985 70.1214 26.3414 68.8009 27.2658C67.4239 28.2278 66.028 26.6998 65.5752 25.4737C64.9339 23.7571 65.1036 21.7953 64.6886 20.0221C64.4811 19.1544 63.2173 19.0035 62.7834 19.7769C60.9914 23.0026 58.5202 25.8133 55.4832 27.9071C54.4079 28.6617 52.0688 30.0953 51.9934 27.7939C51.9556 26.9639 52.3329 26.2094 52.6536 25.4548C53.0309 24.5682 53.3327 23.7382 53.4459 22.7762C53.559 21.8707 52.2386 21.4369 51.6726 22.0405C50.1258 23.6817 48.2583 25.0021 46.1456 25.8698C44.4667 26.5489 41.8447 27.4544 39.996 26.6998ZM53.5779 67.6907C48.8431 63.5595 46.5795 57.8627 45.8061 51.732C44.844 43.979 45.1081 35.9431 45.8438 28.1712C45.9004 28.1523 45.957 28.1335 46.0136 28.1146C47.5604 27.5676 49.0129 26.8319 50.3522 25.8887C50.0126 26.813 49.7863 27.7562 50.0881 28.8503C50.7106 31.1517 53.0308 31.5667 54.9738 30.6424C57.0111 29.6614 58.8975 27.9826 60.4632 26.3792C61.4063 25.3982 62.2741 24.3419 63.0664 23.2289C63.1984 24.5871 63.387 25.9264 64.085 27.1337C65.047 28.756 66.9146 30.0764 68.8764 29.4917C70.8571 28.888 71.9323 26.7564 72.8943 25.0964C73.3659 24.2664 73.8187 23.4176 74.2525 22.5687C74.3846 23.6251 74.5921 24.6814 74.8562 25.7001C75.3089 27.4544 76.0257 29.4539 78.0064 29.8878C79.7985 30.284 81.5339 29.1333 82.5526 27.7373C82.9864 27.1337 83.2694 26.4735 83.4769 25.7755C84.4578 32.5665 84.8728 39.4328 84.703 46.2992C84.703 46.6388 84.8162 46.884 85.0237 47.0538C85.1935 48.3365 85.2878 49.6381 85.3255 50.9397C85.3255 50.9774 85.3255 51.034 85.3255 51.0718C85.4199 55.6745 84.6087 60.3338 82.1564 64.2764C80.006 67.7284 76.5916 70.2939 72.7435 71.6332C72.1775 71.0862 71.0457 71.2559 70.9891 72.1614C70.2157 72.35 69.4234 72.5009 68.6311 72.5764C63.1607 73.18 57.7091 71.2937 53.5779 67.6907ZM49.1261 89.7612C49.692 89.0821 50.2956 88.4408 50.9181 87.7994C51.4651 87.2335 52.0499 86.5355 52.7102 86.1017C53.4836 85.6112 54.5022 86.2526 55.2568 86.5355L57.8788 87.5164C58.8032 87.856 59.7275 88.2144 60.6707 88.554C58.8409 89.1387 57.03 89.7235 55.2002 90.3083C52.597 91.1383 49.9561 91.9683 47.2397 92.1946C47.8245 91.3646 48.447 90.5535 49.1261 89.7612ZM63.9152 118.623C61.8025 118.736 59.652 118.491 57.5204 118.321C53.974 118.019 50.3899 117.547 47.0322 116.302C40.6185 113.945 36.4874 108.399 33.6578 102.4C33.2617 101.551 32.8656 100.664 32.526 99.7967C32.3562 99.3817 32.2053 98.9667 32.0356 98.5706C31.9035 98.2122 31.5828 97.7029 31.6394 97.3067C31.6394 97.2501 31.6771 97.1747 31.7149 97.1181C31.828 97.0238 31.9224 96.9294 31.9978 96.8163C32.5826 96.3447 33.7899 95.9863 34.2237 95.7599L37.2419 94.3262C40.2601 92.8926 43.2595 91.4778 46.2777 90.0442C45.5986 90.9308 44.976 91.8362 44.3724 92.7794C43.9385 93.4585 44.5233 94.3074 45.259 94.3451C48.4093 94.4394 51.4463 93.666 54.4268 92.7417C56.9734 91.9494 59.5011 91.1383 62.0289 90.3083C63.4059 99.6835 64.0284 109.153 63.9152 118.623ZM88.1739 95.4015C87.0987 98.4763 85.5896 101.419 83.7787 104.135C80.1758 109.587 75.0071 114.68 69.0273 117.453C68.0275 117.925 67.0089 118.208 65.9902 118.396C66.1034 108.983 65.4621 99.5892 64.1039 90.2894C69.6309 91.9494 75.3655 92.7983 81.1378 92.8171C81.7414 92.8171 82.1187 92.3456 82.1564 91.8174C82.9676 92.0815 83.7976 92.3644 84.6087 92.6474C85.5142 92.9681 86.4196 93.3076 87.3062 93.6849C87.5703 93.7981 88.0607 93.9301 88.2682 94.1565C88.5701 94.5149 88.3248 95.0053 88.1739 95.4015ZM46.5606 384.016C43.7499 385.356 40.826 386.45 37.8267 387.28C34.9783 388.053 32.0167 388.544 29.1305 387.996C34.0728 382.054 39.5244 376.565 45.4099 371.547C46.5229 372.396 47.8056 373.056 49.1638 373.509C51.9934 374.452 55.1624 374.735 58.1429 374.792C58.7843 374.811 59.4445 374.792 60.1048 374.679C56.1245 378.47 51.5406 381.621 46.5606 384.016ZM61.2931 361.776C61.4818 363.643 61.6704 365.492 61.8591 367.36C61.9911 368.68 62.425 370.529 61.5573 371.698C60.7273 372.83 58.9918 372.755 57.7468 372.698C56.332 372.641 54.8984 372.528 53.4836 372.34C50.6918 371.962 47.7679 371.189 45.7495 369.095C43.6367 366.907 43.0331 363.757 42.5992 360.87C40.3545 345.987 38.6567 331.009 37.0156 316.05C35.3556 301.016 33.9219 285.963 32.6958 270.891C32.5826 269.457 32.4694 268.042 32.3562 266.608C32.941 266.778 33.5258 266.948 34.0917 267.099C39.6188 268.627 45.2213 269.929 50.9181 270.645C53.3704 270.947 55.8227 271.117 58.2561 271.155C57.7845 286.246 57.7845 301.337 58.2938 316.428C58.8032 331.575 59.8029 346.704 61.2931 361.776ZM113.715 376.923C114.734 378.81 115.696 380.734 116.583 382.677C117.017 383.62 117.432 384.563 117.809 385.544C118.073 386.204 118.639 387.431 117.677 387.732C116.3 388.166 114.395 386.846 113.244 386.261C111.527 385.356 109.83 384.375 108.207 383.337C104.963 381.243 101.926 378.866 99.1338 376.207C96.3608 373.566 93.8142 370.698 91.5694 367.605C94.8328 367.643 98.0963 367.567 101.36 367.341C103.114 367.228 105.321 367.209 107.151 366.548C109.547 369.85 111.754 373.32 113.715 376.923ZM108.585 358.984C108.622 360.625 108.924 362.889 107.453 364.04C106.113 365.096 104.057 365.039 102.454 365.171C98.2849 365.492 94.116 365.586 89.9471 365.492C88.7021 353.193 87.344 340.894 85.8537 328.632C84.3258 315.994 82.6657 303.355 80.8926 290.754C79.9117 283.774 78.893 276.814 77.8367 269.853C80.5153 269.551 83.1939 269.249 85.8726 268.966C90.9092 268.457 95.9835 267.929 100.888 266.684C102.699 266.231 104.472 265.665 106.208 264.967C106.604 280.417 106.981 295.866 107.377 311.315C107.773 327.199 108.188 343.082 108.585 358.984ZM110.414 205.999C109.301 196.002 108.113 186.004 106.698 176.044C105.302 166.122 104.133 155.935 101.077 146.352C99.6054 141.712 97.2663 137.468 95.5119 132.94C93.7576 128.394 93.3992 123.678 93.9085 118.849C94.4744 113.473 95.8892 108.21 96.8324 102.89C97.0588 101.551 97.2663 100.212 97.436 98.8724C97.4549 98.7026 97.4737 98.5329 97.5115 98.3442C107.585 107.342 113.395 120.056 116.696 132.978C118.695 140.825 119.903 148.861 120.959 156.878C122.053 165.216 123.11 173.573 124.185 181.91C125.354 191.003 126.524 200.095 127.712 209.206C121.921 208.735 116.187 207.659 110.603 206.056C110.546 206.018 110.471 205.999 110.414 205.999ZM110.66 208.206C116.243 209.772 121.959 210.81 127.731 211.262C128.429 212.677 128.505 214.356 127.863 215.809C127.429 216.789 126.92 216.789 125.939 216.695C125.034 216.601 124.128 216.507 123.223 216.393C119.412 215.922 115.621 215.205 111.886 214.318C111.678 214.262 111.471 214.281 111.301 214.337C111.093 212.3 110.867 210.244 110.66 208.206ZM133.051 237.011C132.994 237.615 132.956 238.294 132.768 238.86C132.749 238.917 132.711 238.973 132.673 239.049C132.636 238.502 132.73 237.936 132.73 237.407C132.749 236.596 132.692 235.804 132.579 234.993C132.391 233.522 132.013 232.107 131.447 230.73C131.051 229.768 129.259 229.73 129.41 231.013C129.636 233.107 129.693 235.219 129.542 237.332C129.467 238.407 129.316 239.482 129.127 240.539C129.033 241.086 128.844 241.652 128.693 242.199C128.655 241.935 128.637 241.671 128.599 241.407C128.467 240.294 128.316 239.2 128.184 238.087C127.901 235.823 127.618 233.54 127.335 231.277C127.165 229.975 125.109 229.937 125.26 231.277C125.524 233.635 125.769 236.012 125.713 238.37C125.675 239.52 125.581 240.652 125.354 241.765C125.298 242.029 125.222 242.538 125.071 242.991C124.656 238.803 123.826 234.672 122.544 230.654C122.204 229.598 120.393 229.711 120.506 230.937C120.884 234.71 121.242 238.52 121.053 242.331C120.997 243.331 120.903 244.349 120.752 245.33C120.714 245.632 120.676 245.953 120.582 246.236C120.563 246.311 120.544 246.368 120.525 246.443C120.506 246.405 120.506 246.368 120.487 246.311C120.62 245.425 120.393 244.368 120.337 243.482C120.28 242.595 120.186 241.708 120.091 240.822C119.714 237.257 119.073 233.71 118.205 230.239C117.771 228.523 117.281 226.806 116.715 225.127C116.262 223.788 115.677 222.486 114.394 221.769C114.093 221.6 113.659 221.562 113.338 221.769C112.961 222.015 112.584 222.279 112.206 222.524C111.999 220.468 111.791 218.393 111.565 216.337C116.243 217.45 121.016 218.242 125.807 218.732C126.316 218.789 126.807 218.827 127.278 218.789C127.316 218.864 127.373 218.94 127.429 219.015C130.825 222.958 132.862 228.032 133.164 233.22C133.202 234.502 133.183 235.766 133.051 237.011Z" fill="#010202"/>
</g>
</svg>
