<svg width="100" height="40" viewBox="0 0 100 40" fill="none" xmlns="http://www.w3.org/2000/svg">
<path fill-rule="evenodd" clip-rule="evenodd" d="M39.4433 36.4459C37.1964 40.1031 25.921 39.7699 21.255 39.7699C16.5895 39.7699 6.30684 39.7699 3.06671 36.4459C0.21605 33.4847 0 23.1161 0 19.8849C0 16.6532 0.21605 6.28453 3.06671 3.36643C6.30684 0 16.5895 0 21.255 0C25.921 0 36.2031 0 39.4433 3.36643C42.2945 6.28453 42.5532 16.6526 42.5532 19.8849C42.5532 23.1161 42.2945 33.4847 39.4433 36.4459ZM37.1964 5.70091C35.252 3.68069 27.3896 3.32214 21.255 3.32214C15.1204 3.32214 7.25745 3.68069 5.35681 5.70091C3.84448 7.27159 3.15371 14.5432 3.15371 19.8849C3.15371 25.2261 3.84507 32.4983 5.35681 34.0689C7.25745 36.088 15.1204 36.492 21.255 36.492C27.3896 36.492 35.252 36.088 37.1964 34.0689C38.7087 32.4977 39.3563 25.2261 39.3563 19.8849C39.3569 14.5432 38.7087 7.27159 37.1964 5.70091ZM33.913 24.1935H8.59694L7.0414 11.4461L14.7747 17.0117L21.255 10.2346L27.7785 17.0123L35.5118 11.4467L33.913 24.1935ZM33.3087 29.1761H9.24508L8.8562 26.3933H33.6544L33.3087 29.1761ZM27.5198 20.3339L21.255 13.8704L14.9914 20.3339L10.2389 16.8328L10.8 21.4562H31.7099L32.3143 16.8328L27.5198 20.3339Z" fill="#FFFCF9"/>
<path d="M49.8262 21.3481C49.8262 24.3012 51.2624 26.0122 53.7458 26.0122C54.9351 26.0122 55.9 25.6215 56.5882 24.9028C57.0968 24.3637 57.426 23.6762 57.426 23.184C57.426 22.8793 57.2539 22.684 56.9472 22.684C56.7079 22.684 56.5732 22.809 56.4162 23.1528C55.93 24.3793 55.0024 25.0122 53.7832 25.0122C51.9281 25.0122 50.8734 23.6918 50.8734 21.3559V19.5512C50.8734 17.2231 51.9206 15.8872 53.7607 15.8872C54.9575 15.8872 55.8552 16.5434 56.3713 17.7778C56.5358 18.145 56.6929 18.2622 56.9398 18.2622C57.2165 18.2622 57.4035 18.0747 57.4035 17.7465C57.4035 17.2856 57.0819 16.5825 56.5732 16.0434C55.8776 15.2856 54.9276 14.895 53.7308 14.895C51.2624 14.895 49.8262 16.6215 49.8262 19.559V21.3481Z" fill="#FFFCF9"/>
<path d="M59.1688 25.8793C59.4531 25.8793 59.6251 25.7387 59.7373 25.3715L60.7022 22.4184H64.6592L65.6241 25.3715C65.7438 25.7387 65.9083 25.8793 66.1926 25.8793C66.4918 25.8793 66.6938 25.6918 66.6938 25.4028C66.6938 25.2778 66.6638 25.1528 66.6189 25.02L63.41 15.6606C63.2604 15.2465 63.051 15.0434 62.6844 15.0434C62.3104 15.0434 62.1085 15.2465 61.9589 15.6606L58.7425 25.02C58.6976 25.1528 58.6751 25.2778 58.6751 25.4028C58.6751 25.6997 58.8696 25.8793 59.1688 25.8793ZM61.0014 21.52L62.662 16.4653H62.7069L64.36 21.52H61.0014Z" fill="#FFFCF9"/>
<path d="M68.9378 25.8559C69.2594 25.8559 69.4689 25.6215 69.4689 25.2543V21.02H73.4258C73.7699 21.02 73.9868 20.8325 73.9868 20.5278C73.9868 20.2153 73.7699 20.02 73.4258 20.02H69.4689V16.1215H73.8222C74.1663 16.1215 74.3832 15.934 74.3832 15.6293C74.3832 15.3168 74.1663 15.1215 73.8222 15.1215H69.4464C68.7134 15.1215 68.4216 15.4106 68.4216 16.1137V25.2543C68.4216 25.6215 68.6161 25.8559 68.9378 25.8559Z" fill="#FFFCF9"/>
<path d="M76.1111 24.7934C76.1111 25.4965 76.4029 25.7778 77.1359 25.7778H81.6015C81.9456 25.7778 82.1625 25.5903 82.1625 25.2856C82.1625 24.9731 81.9456 24.7778 81.6015 24.7778H77.1583V20.8247H81.3397C81.6838 20.8247 81.9007 20.6372 81.9007 20.3325C81.9007 20.0278 81.6838 19.8325 81.3397 19.8325H77.1583V16.1215H81.609C81.9531 16.1215 82.17 15.934 82.17 15.6293C82.17 15.3168 81.9531 15.1215 81.609 15.1215H77.1359C76.4029 15.1215 76.1111 15.4106 76.1111 16.1137V24.7934Z" fill="#FFFCF9"/>
<path d="M88.154 24.3637C88.4532 25.4809 89.0741 25.8481 89.9418 25.8481C90.802 25.8481 91.4228 25.3168 91.6622 24.3637L92.859 19.645H92.9637L94.1381 24.27C94.4148 25.3793 95.0207 25.8481 95.9557 25.8481C96.8384 25.8481 97.3919 25.3637 97.6612 24.3637L99.5312 17.2778C99.591 17.0668 99.6359 16.6918 99.6359 16.4262C99.6359 15.6059 99.0599 15.0356 98.2297 15.0356C97.4368 15.0356 96.9506 15.559 96.7411 16.684L95.7313 21.7934H95.5892L94.3999 16.6215C94.1455 15.5122 93.6967 15.0356 92.9039 15.0356C92.111 15.0356 91.6921 15.4887 91.4228 16.6215L90.241 21.7934H90.1063L89.0217 16.684C88.7823 15.5356 88.3335 15.0356 87.5481 15.0356C86.7029 15.0356 86.1269 15.6137 86.1269 16.4575C86.1269 16.7153 86.1793 17.1059 86.284 17.4887L88.154 24.3637Z" fill="#FFFCF9"/>
</svg>
